<svg width="18" height="20" viewBox="0 0 18 20" fill="none" xmlns="http://www.w3.org/2000/svg">
<path fill-rule="evenodd" clip-rule="evenodd" d="M0.109131 19.1874C0.279198 16.8997 1.32111 14.8548 2.90397 13.3877C3.79938 12.5579 4.86691 11.9104 6.04611 11.5067C5.60352 11.2537 5.1968 10.9422 4.83822 10.5837C3.79938 9.54688 3.15702 8.11156 3.15702 6.52768C3.15702 4.9438 3.79938 3.5095 4.8372 2.47168C5.87502 1.43387 7.31034 0.791504 8.89422 0.791504C10.4781 0.791504 11.9124 1.43387 12.9512 2.47168C13.9891 3.51155 14.6314 4.94585 14.6314 6.52768C14.6314 8.10848 13.9901 9.54176 12.9512 10.5816L12.9482 10.5847C12.5896 10.9433 12.1849 11.2547 11.7423 11.5067C12.9226 11.9104 13.9901 12.5579 14.8845 13.3877C16.4673 14.8548 17.5092 16.8997 17.6793 19.1874L16.455 19.2755C16.3095 17.3095 15.4111 15.5494 14.0485 14.2852C12.6972 13.0322 10.8858 12.2659 8.89422 12.2659C6.90259 12.2659 5.09127 13.0322 3.73996 14.2852C2.37737 15.5494 1.47889 17.3095 1.33341 19.2755L0.109131 19.1874ZM8.89422 11.0365C10.141 11.0365 11.268 10.5324 12.0814 9.719L12.0845 9.71592C12.899 8.90247 13.402 7.7745 13.402 6.52768C13.402 5.28086 12.899 4.15494 12.0825 3.34046C11.267 2.52496 10.139 2.0209 8.89422 2.0209C7.64945 2.0209 6.52148 2.52496 5.70597 3.34046C4.89047 4.15596 4.38642 5.28291 4.38642 6.52768C4.38642 7.77245 4.89047 8.90042 5.70597 9.71592C6.52045 10.5324 7.6474 11.0365 8.89422 11.0365Z" fill="#333F48"/>
</svg>
