<svg width="17" height="25" viewBox="0 0 17 25" fill="none" xmlns="http://www.w3.org/2000/svg">
<path fill-rule="evenodd" clip-rule="evenodd" d="M8.0007 23.5518L1.69076 14.2031C1.19682 13.4056 0.80147 12.6803 0.526191 11.9003C0.245055 11.1008 0.0908203 10.2564 0.0908203 9.23928C0.0908203 6.92186 1.03185 4.8231 2.55076 3.30418C4.06968 1.78526 6.16844 0.844238 8.48586 0.844238C10.8033 0.844238 12.903 1.78526 14.4219 3.30418C15.9408 4.8231 16.8809 6.92186 16.8809 9.23928C16.8809 10.2564 16.7276 11.1008 16.4455 11.9003C16.1712 12.6803 15.7749 13.4056 15.281 14.2031C13.5873 17.2624 10.5465 21.2188 8.48586 24.2703L8.0007 23.5518ZM8.59584 4.74982C9.86495 4.74982 11.014 5.26386 11.8471 6.09693L11.8491 6.09893C12.6812 6.931 13.1962 8.0811 13.1962 9.3492C13.1962 10.6193 12.6812 11.7694 11.8491 12.6025C11.016 13.4345 9.86595 13.9496 8.59584 13.9496C7.32774 13.9496 6.17764 13.4345 5.34457 12.6015C4.5105 11.7694 3.99546 10.6193 3.99546 9.3492C3.99546 8.0811 4.5105 6.931 5.34257 6.09893L5.34557 6.09693C6.17764 5.26386 7.32774 4.74982 8.59584 4.74982ZM10.9734 6.91539C10.3584 6.30034 9.50731 5.92131 8.56723 5.92131C7.62716 5.92131 6.77609 6.30034 6.16203 6.91539C5.54698 7.53045 5.16695 8.38152 5.16695 9.32059C5.16695 10.2607 5.54798 11.1107 6.16303 11.7258C6.77609 12.3418 7.62716 12.7209 8.56723 12.7209C9.50631 12.7209 10.3564 12.3408 10.9714 11.7258C11.5865 11.1107 11.9675 10.2607 11.9675 9.32059C11.9675 8.38152 11.5875 7.53045 10.9734 6.91539ZM2.67196 13.5695L8.48601 22.1792L14.3001 13.5685C14.7462 12.85 15.1015 12.197 15.3436 11.5117C15.5798 10.8391 15.7096 10.1177 15.7096 9.23918C15.7096 7.24487 14.9004 5.43896 13.5943 4.13187C12.2872 2.82576 10.4803 2.01554 8.48601 2.01554C6.4917 2.01554 4.68481 2.82576 3.3787 4.13187C2.07161 5.43896 1.26237 7.24487 1.26237 9.23918C1.26237 10.1177 1.3922 10.8391 1.62843 11.5117C1.87052 12.197 2.22585 12.85 2.67196 13.5695Z" fill="#333F48"/>
</svg>
