<svg width="15" height="19" viewBox="0 0 15 19" fill="none" xmlns="http://www.w3.org/2000/svg">
<path fill-rule="evenodd" clip-rule="evenodd" d="M7.32762 0.198242C9.19323 0.198242 10.8826 0.955348 12.1059 2.1786C13.3322 3.40185 14.0893 5.09228 14.0893 6.95994C14.0893 8.82453 13.3322 10.515 12.109 11.7392C11.8364 12.0118 11.5404 12.2607 11.2238 12.4851L14.6139 18.3555L13.5525 18.9671L10.1655 13.0987C9.30183 13.4983 8.34085 13.7216 7.32762 13.7216C5.46098 13.7216 3.77055 12.9645 2.5473 11.7413C1.32302 10.515 0.565918 8.82453 0.565918 6.95994C0.565918 5.09228 1.32302 3.40185 2.5473 2.1786C3.77055 0.955348 5.46098 0.198242 7.32762 0.198242ZM11.2402 3.04738C10.2403 2.04644 8.85617 1.42764 7.32762 1.42764C5.80009 1.42764 4.41599 2.04746 3.41505 3.0484C2.41514 4.04729 1.79532 5.43139 1.79532 6.95994C1.79532 8.4885 2.41514 9.87157 3.41403 10.8735C4.41599 11.8714 5.80009 12.4922 7.32762 12.4922C8.85515 12.4922 10.2392 11.8714 11.2402 10.8715C12.2411 9.87157 12.8599 8.4885 12.8599 6.95994C12.8599 5.43139 12.2401 4.04729 11.2402 3.04738Z" fill="#333F48"/>
</svg>
