<svg id="Layer_1" data-name="Layer 1" xmlns="http://www.w3.org/2000/svg" xmlns:xlink="http://www.w3.org/1999/xlink" viewBox="0 0 50 25"><defs><style>.cls-1,.cls-8{fill:none;}.cls-2{opacity:0.55;}.cls-3{clip-path:url(#clip-path);}.cls-4{clip-path:url(#clip-path-2);}.cls-5{fill:#221f1f;}.cls-6{fill:#5a6bb1;}.cls-7{fill:#040304;}.cls-8{stroke:#040304;stroke-linecap:round;stroke-linejoin:round;stroke-width:0.09px;}.cls-9{fill:#f89e1f;}.cls-10{fill:#faf290;}.cls-11{fill:#c1529d;}.cls-12{fill:#70c7b8;}.cls-13{fill:#00a169;}.cls-14{fill:#f05b49;}.cls-15{fill:#fff;}</style><clipPath id="clip-path"><rect class="cls-1" width="50" height="25"/></clipPath><clipPath id="clip-path-2"><rect class="cls-1" x="-8.1" y="-13.68" width="67.73" height="67.73" transform="translate(0.08 40.47) rotate(-76.38)"/></clipPath></defs><title>icon hoa tiet</title><g class="cls-2"><g class="cls-3"><g class="cls-4"><g class="cls-4"><path class="cls-5" d="M50.18,10.11l-.23,0a.89.89,0,0,0-.62.08,1.15,1.15,0,0,0-.57.67,4.55,4.55,0,0,0-.16.61,1.81,1.81,0,0,0,0,.9c0,.15.1.29.15.43a.64.64,0,0,0,.26.28.77.77,0,0,0,.57.1.57.57,0,0,0,.31-.14,1.19,1.19,0,0,0,.29-.43.48.48,0,0,0,0-.41.16.16,0,0,0-.18-.12.24.24,0,0,0-.21.12l-.08.15a.25.25,0,0,1-.22.15c-.14,0-.21,0-.27-.2a1.2,1.2,0,0,1-.1-.6,1.63,1.63,0,0,1,0-.21,1.77,1.77,0,0,1,.21-.58.36.36,0,0,1,.27-.17.13.13,0,0,1,.11,0,1.09,1.09,0,0,1,.15.22,2.86,2.86,0,0,1,.12.32.2.2,0,0,0,.28.14.36.36,0,0,0,.25-.34,1.77,1.77,0,0,0-.19-.86.19.19,0,0,0-.15-.12"/><path class="cls-6" d="M49.29,11.22a1.78,1.78,0,0,1,.21-.58.36.36,0,0,1,.27-.17.13.13,0,0,1,.11,0,1.09,1.09,0,0,1,.15.22,2.84,2.84,0,0,1,.12.32.2.2,0,0,0,.28.14.36.36,0,0,0,.25-.34,1.77,1.77,0,0,0-.19-.86.19.19,0,0,0-.15-.12l-.23,0a.89.89,0,0,0-.62.08,1.15,1.15,0,0,0-.57.67,4.51,4.51,0,0,0-.16.61,1.81,1.81,0,0,0,0,.9c0,.15.1.29.15.43a.64.64,0,0,0,.26.28.77.77,0,0,0,.57.1.57.57,0,0,0,.31-.14,1.19,1.19,0,0,0,.29-.43.49.49,0,0,0,0-.41.16.16,0,0,0-.18-.12.24.24,0,0,0-.21.12l-.08.15a.25.25,0,0,1-.22.15c-.14,0-.21,0-.27-.2a1.2,1.2,0,0,1-.1-.6,1.63,1.63,0,0,1,0-.21"/><path class="cls-5" d="M49.29,11.22a1.63,1.63,0,0,0,0,.21,1.2,1.2,0,0,0,.1.6c.06.16.12.21.27.2a.25.25,0,0,0,.22-.15l.08-.15a.24.24,0,0,1,.21-.12.16.16,0,0,1,.18.12.48.48,0,0,1,0,.41,1.19,1.19,0,0,1-.29.43.57.57,0,0,1-.31.14.77.77,0,0,1-.57-.1.64.64,0,0,1-.26-.28c-.06-.14-.11-.29-.15-.43a1.81,1.81,0,0,1,0-.9,4.51,4.51,0,0,1,.16-.61,1.15,1.15,0,0,1,.57-.67.89.89,0,0,1,.62-.08l.23,0a.19.19,0,0,1,.15.12,1.77,1.77,0,0,1,.19.86.36.36,0,0,1-.25.34.2.2,0,0,1-.28-.14,2.86,2.86,0,0,0-.12-.32,1.09,1.09,0,0,0-.15-.22.13.13,0,0,0-.11,0,.36.36,0,0,0-.27.17,1.77,1.77,0,0,0-.21.58m1-1.23L50,9.94h0a.77.77,0,0,0-.63.18.9.9,0,0,0-.32.45,3.85,3.85,0,0,0-.21.88,1.87,1.87,0,0,0,.19,1,.65.65,0,0,0,.68.34.38.38,0,0,0,.25-.1,1.85,1.85,0,0,0,.2-.24.5.5,0,0,0,.08-.36.15.15,0,0,0-.07-.1c-.05,0-.1,0-.13.06l0,.06a.45.45,0,0,1-.23.25.34.34,0,0,1-.45-.13,1.25,1.25,0,0,1-.15-.7c0-.18,0-.37.06-.55a.8.8,0,0,1,.38-.59c.17-.1.32-.13.46.11l0,0,.2.45c0,.07.05.08.12.05a.25.25,0,0,0,.15-.23,1.45,1.45,0,0,0-.14-.7.19.19,0,0,0-.14-.12"/><path class="cls-7" d="M58,6.11h0q-.73-.26-1.48-.48h-.2l0,0h0l0,0h0l0,0h0L56,5.48h0q-.85-.22-1.71-.39h-.18l0,0h0l0,0h0l0,0h0l0,0h0l0,0h0v0h0v0h0v0l-.06.18a.1.1,0,0,0,0,.07h0l-.48-.46,0,0h-.07l0,0h0l0,0h0l0,0h0l0,0h0l0,0H52.1l-.05,0h0l-.06,0h0l0,0h0l0,0h0l0,0,0,0h0l-.36-.34h-.07l-.48,0h-.1L50.42,5,50,4.66h-.39l0,0h0l0,0h0l0,0h0l0,0h0v0h0v0h0v0h0v0l-.07.45-.52-.5,0,0h0l0,0h0l0,0h0l0,0h0l0,0h0l0,0h-.85l-.06,0h0l-.06,0h0l0,0h0l0,0h0l0,0h0l0,0h0l0,0h0l0,0h0l0,0h0l0,0h0l0,0h0l0,0h0v0h0v0h0v0h0v.08h0v0A.65.65,0,0,0,47.3,6l1,.91h-.18l-.53-.51h-.43l0,0h0l0,0h0v0h0v0h0v0h0v0h0v0h0v0h0v0a.67.67,0,0,0,.22.51l1.4,1.34h0l0,0h0l0,0h0v0h0v0h0v0h0v0h0l0,0h0v0h0v0h0v0h0v0h0v0h0v0h0s0,0,0,0v0h0V8h0V8h0V8h0v0h0v0h0v0h0l0,0h0l0,0h.43a.09.09,0,0,1,0,.07.41.41,0,0,0,.06.25l.06.07h.57l0,0h0l0,0h.06v0h0V8a.31.31,0,0,0,0,0h0V8h0v0h0v0h0l0,0h0l0,0h0a1.16,1.16,0,0,0-.41-.21l-.11,0,0,0-.12,0-.13-.06a1,1,0,0,1-.21-.15h0l0,0h0v0h0v0h0v0h0v0h0v0h0v0h0v0h0V7h0V6.87s0,0,0,0,0,0,0,0v-.1h0v0h0v0h0v0h0v0h0v0h0l0,0h0l0,0h0v0h0l0,0h0l0,0h0l0,0h0l0,0h0l0,0h0l0,0h0l0,0h0l.06,0h.82l0,0h.12l0,0h0l0,0h0l0,0h0l0,0h0a.79.79,0,0,1,.25.52.84.84,0,0,1,0,.19.13.13,0,0,1-.13.11h-.4l-.06,0h0a.1.1,0,0,1,0,0,.39.39,0,0,0,0,0h0v0h0v0h0v0h0v0h0v0h0l0,0h0l0,0a.4.4,0,0,0-.23-.11h-.13l-.09,0h0l0,0a.22.22,0,0,0-.13.16.18.18,0,0,0,0,.09l0,.07h0l0,0h0l0,0h0l0,0h0l0,0h.25l0,0h.57a.67.67,0,0,1,.2.63.92.92,0,0,1-.23.46l.3.29h0v0h0v0l.15-1,.12-.8.08-.53,0-.16v0h0v0h0v0h0v0h0l0,0h0l0,0h0l0,0h0l0,0h.39a.09.09,0,0,1,0,.08l-.15.83q.43-.44.89-.87h.65l0,0a.11.11,0,0,1,0,.11h0l-.11.1-.12.11-.77.74a1.7,1.7,0,0,1,.42,1.53l.19.18h0v0h0v0l.22-.92.18-.76,0-.07V6.88l0,0v0l0,0v0l0,0h0l0,0v0l0,0v0l0,0h0l0,0h0l0,0h0l0,0,0,0h0l0,0,0,0h0l0,0h0l.06,0h0l.05,0h1l0,0h0l0,0h0l0,0h0l0,0h0l0,0h0l0,0h0l.06.07h0l0,.07a1,1,0,0,1,0,.8L54.5,8.61l.7.68h0v0h0v0h0v0l.23-.67.51-1.45L55.63,7l-.34-.06-.05,0h0v0h0v0h0a.09.09,0,0,1,0,0h0v0l.06-.18v0h0v0h0v0h0l0,0h0l0,0h0l0,0h0l0,0h0l0,0h0l0,0h.18l.19,0q.69.13,1.36.31l.09,0,.07,0h0l0,0a.09.09,0,0,1,0,.06h0V7l-.07.16h0l-.06.15a.13.13,0,0,1-.13.08h0L57,7.3l-.47-.12-.3.8-.06.16-.29.79.72.69h0v0h0v0l.29-.7.2-.5h0l.27-.67.16-.39h0l0-.1v0h0v0h0l0,0h0l0,0h0l0,0h0l0,0h.2q.75.22,1.48.48h0Z"/><path class="cls-8" d="M58,6.11h0q-.73-.26-1.48-.48h-.2l0,0h0l0,0h0l0,0h0L56,5.48h0q-.85-.22-1.71-.39h-.18l0,0h0l0,0h0l0,0h0l0,0h0l0,0h0v0h0v0h0v0l-.06.18a.1.1,0,0,0,0,.07h0l-.48-.46,0,0h-.07l0,0h0l0,0h0l0,0h0l0,0h0l0,0H52.1l-.05,0h0l-.06,0h0l0,0h0l0,0h0l0,0,0,0h0l-.36-.34h-.07l-.48,0h-.1L50.42,5,50,4.66h-.39l0,0h0l0,0h0l0,0h0l0,0h0v0h0v0h0v0h0v0l-.07.45-.52-.5,0,0h0l0,0h0l0,0h0l0,0h0l0,0h0l0,0h-.85l-.06,0h0l-.06,0h0l0,0h0l0,0h0l0,0h0l0,0h0l0,0h0l0,0h0l0,0h0l0,0h0l0,0h0l0,0h0v0h0v0h0v0h0v.08h0v0A.65.65,0,0,0,47.3,6l1,.91h-.18l-.53-.51h-.43l0,0h0l0,0h0v0h0v0h0v0h0v0h0v0h0v0h0v0a.67.67,0,0,0,.22.51l1.4,1.34h0l0,0h0l0,0h0v0h0v0h0v0h0v0h0l0,0h0v0h0v0h0v0h0v0h0v0h0v0h0s0,0,0,0v0h0V8h0V8h0V8h0v0h0v0h0v0h0l0,0h0l0,0h.43a.09.09,0,0,1,0,.07.41.41,0,0,0,.06.25l.06.07h.57l0,0h0l0,0h.06v0h0V8a.31.31,0,0,0,0,0h0V8h0v0h0v0h0l0,0h0l0,0h0a1.16,1.16,0,0,0-.41-.21l-.11,0,0,0-.12,0-.13-.06a1,1,0,0,1-.21-.15h0l0,0h0v0h0v0h0v0h0v0h0v0h0v0h0v0h0V7h0V6.87s0,0,0,0,0,0,0,0v-.1h0v0h0v0h0v0h0v0h0v0h0l0,0h0l0,0h0v0h0l0,0h0l0,0h0l0,0h0l0,0h0l0,0h0l0,0h0l0,0h0l.06,0h.82l0,0h.12l0,0h0l0,0h0l0,0h0l0,0h0a.79.79,0,0,1,.25.52.84.84,0,0,1,0,.19.13.13,0,0,1-.13.11h-.4l-.06,0h0a.1.1,0,0,1,0,0,.39.39,0,0,0,0,0h0v0h0v0h0v0h0v0h0v0h0l0,0h0l0,0a.4.4,0,0,0-.23-.11h-.13l-.09,0h0l0,0a.22.22,0,0,0-.13.16.18.18,0,0,0,0,.09l0,.07h0l0,0h0l0,0h0l0,0h0l0,0h.25l0,0h.57a.67.67,0,0,1,.2.63.92.92,0,0,1-.23.46l.3.29h0v0h0v0l.15-1,.12-.8.08-.53,0-.16v0h0v0h0v0h0v0h0l0,0h0l0,0h0l0,0h0l0,0h.39a.09.09,0,0,1,0,.08l-.15.83q.43-.44.89-.87h.65l0,0a.11.11,0,0,1,0,.11h0l-.11.1-.12.11-.77.74a1.7,1.7,0,0,1,.42,1.53l.19.18h0v0h0v0l.22-.92.18-.76,0-.07V6.88l0,0v0l0,0v0l0,0h0l0,0v0l0,0v0l0,0h0l0,0h0l0,0h0l0,0,0,0h0l0,0,0,0h0l0,0h0l.06,0h0l.05,0h1l0,0h0l0,0h0l0,0h0l0,0h0l0,0h0l0,0h0l.06.07h0l0,.07a1,1,0,0,1,0,.8L54.5,8.61l.7.68h0v0h0v0h0v0l.23-.67.51-1.45L55.63,7l-.34-.06-.05,0h0v0h0v0h0a.09.09,0,0,1,0,0h0v0l.06-.18v0h0v0h0v0h0l0,0h0l0,0h0l0,0h0l0,0h0l0,0h0l0,0h.18l.19,0q.69.13,1.36.31l.09,0,.07,0h0l0,0a.09.09,0,0,1,0,.06h0V7l-.07.16h0l-.06.15a.13.13,0,0,1-.13.08h0L57,7.3l-.47-.12-.3.8-.06.16-.29.79.72.69h0v0h0v0l.29-.7.2-.5h0l.27-.67.16-.39h0l0-.1v0h0v0h0l0,0h0l0,0h0l0,0h0l0,0h.2q.75.22,1.48.48h0Z"/><path class="cls-9" d="M50.36,8a.67.67,0,0,0-.2-.63H49.6l0,0H49.3l0,0h0l0,0h0l0,0h0l0,0h0l0-.07a.18.18,0,0,1,0-.09.22.22,0,0,1,.13-.16l0,0h0l.09,0h.13a.4.4,0,0,1,.23.11l0,0h0l0,0h0v0h0v0h0v0h0v0h0v0h0a.39.39,0,0,1,0,0,.1.1,0,0,0,0,0h0l.06,0h.4a.13.13,0,0,0,.13-.11.84.84,0,0,0,0-.19.79.79,0,0,0-.25-.52h0l0,0h0l0,0h0l0,0h0l0,0h-.12l0,0h-.82l-.06,0h0l0,0h0l0,0h0l0,0h0l0,0h0l0,0h0l0,0h0l0,0h0v0h0l0,0h0l0,0h0v0h0v0h0v0h0v0h0v0h0v.1s0,0,0,0,0,0,0,0V7h0V7h0v0h0v0h0v0h0v0h0v0h0v0h0v0h0l0,0h0a1,1,0,0,0,.21.15l.13.06.12,0,0,0,.11,0a1.16,1.16,0,0,1,.41.21h0l0,0h0l0,0h0v0h0V8h0V8h0a.31.31,0,0,1,0,0v0h0v0h-.06l0,0h0l0,0h-.57L49,8.11A.41.41,0,0,1,49,7.86a.09.09,0,0,0,0-.07h-.43l0,0h0l0,0h0v0h0v0h0V8h0V8h0V8h0V8h0v0s0,0,0,0h0v0h0v0h0v0h0v0h0v0h0v0h0l0,0h0v0h0v0h0v0h0v0h0l0,0h0l0,0h0l.07.06a1,1,0,0,0,.51.21h.2a1.13,1.13,0,0,0,.78-.37A.92.92,0,0,0,50.36,8"/><path class="cls-8" d="M50.36,8a.67.67,0,0,0-.2-.63H49.6l0,0H49.3l0,0h0l0,0h0l0,0h0l0,0h0l0-.07a.18.18,0,0,1,0-.09.22.22,0,0,1,.13-.16l0,0h0l.09,0h.13a.4.4,0,0,1,.23.11l0,0h0l0,0h0v0h0v0h0v0h0v0h0v0h0a.39.39,0,0,1,0,0,.1.1,0,0,0,0,0h0l.06,0h.4a.13.13,0,0,0,.13-.11.84.84,0,0,0,0-.19.79.79,0,0,0-.25-.52h0l0,0h0l0,0h0l0,0h0l0,0h-.12l0,0h-.82l-.06,0h0l0,0h0l0,0h0l0,0h0l0,0h0l0,0h0l0,0h0l0,0h0v0h0l0,0h0l0,0h0v0h0v0h0v0h0v0h0v0h0v.1s0,0,0,0,0,0,0,0V7h0V7h0v0h0v0h0v0h0v0h0v0h0v0h0v0h0l0,0h0a1,1,0,0,0,.21.15l.13.06.12,0,0,0,.11,0a1.16,1.16,0,0,1,.41.21h0l0,0h0l0,0h0v0h0V8h0V8h0a.31.31,0,0,1,0,0v0h0v0h-.06l0,0h0l0,0h-.57L49,8.11A.41.41,0,0,1,49,7.86a.09.09,0,0,0,0-.07h-.43l0,0h0l0,0h0v0h0v0h0V8h0V8h0V8h0V8h0v0s0,0,0,0h0v0h0v0h0v0h0v0h0v0h0v0h0l0,0h0v0h0v0h0v0h0v0h0l0,0h0l0,0h0l.07.06a1,1,0,0,0,.51.21h.2a1.13,1.13,0,0,0,.78-.37A.92.92,0,0,0,50.36,8Z"/><path class="cls-7" d="M50.16,8.59c0-.05-.05-.11-.1-.06a.91.91,0,0,1-.41.3l-.08,0a.06.06,0,0,0-.06,0,.05.05,0,0,0-.06,0l-.07.06s0,0-.1,0h0a.16.16,0,0,0-.18,0A.21.21,0,0,1,49,8.78a.06.06,0,0,0-.1.05,1.14,1.14,0,0,0-.14-.15c-.1-.09-.37-.23-.34-.4s-.11-.08-.12,0,.2.34.34.45a.62.62,0,0,1,.26.42.74.74,0,0,0,.05.31.11.11,0,0,0,.2,0,.32.32,0,0,0,0-.21.64.64,0,0,1,0-.14c0-.07,0-.11.1-.13h0l.09.15a.06.06,0,0,0,.1,0l0-.05h0a.05.05,0,0,0,0,0c.13,0,.25.16.37.2a.06.06,0,0,0,.08,0c0-.11,0-.22.08-.33s.11-.19.15-.29"/><path class="cls-7" d="M49.43,9.48a.05.05,0,0,0,0,0,.06.06,0,0,0-.11,0,.38.38,0,0,0,0,.19.11.11,0,0,0,.12.09c.11,0,0-.18,0-.25"/><path class="cls-7" d="M49.89,7a.46.46,0,0,0-.29-.5.78.78,0,0,0-.3,0,.22.22,0,0,0-.19.12c0,.07.06.13.1.07s.26-.1.35-.08a.32.32,0,0,1,.21.37.06.06,0,0,0,.12,0"/><path class="cls-7" d="M50.53,6.66A1,1,0,0,0,50,6a1.46,1.46,0,0,0-.49,0h-.27a.05.05,0,0,0-.08,0,4,4,0,0,0-.61.5c-.06.05,0,.14.08.09a5.42,5.42,0,0,1,.43-.37h0c.09-.08.23,0,.34,0a1.87,1.87,0,0,1,.46,0c.25.05.43.37.51.59,0,.07.14,0,.12,0"/><path class="cls-10" d="M22.58,5.67h0v0q-.48-.61-1-1.19l0,0,0,0h-.36l0,0L21,4.45h0l-.35.25-.59.42h0l-.44.31L19,5.88h0v0h0l0,0q.53.58,1,1.2h0a.12.12,0,0,0,.14,0L20.5,7a.1.1,0,0,0,0-.12h0v0q-.35-.45-.73-.89l.44-.3h0l.11-.07.56.67h0a.12.12,0,0,0,.14,0l.32-.2a.1.1,0,0,0,0-.11h0V6l-.57-.68.35-.24h0L21.3,5q.4.46.78.95l0,0a.13.13,0,0,0,.14,0l.3-.18a.1.1,0,0,0,0-.11"/><path class="cls-8" d="M22.58,5.67h0v0q-.48-.61-1-1.19l0,0,0,0h-.36l0,0L21,4.45h0l-.35.25-.59.42h0l-.44.31L19,5.88h0v0h0l0,0q.53.58,1,1.2h0a.12.12,0,0,0,.14,0L20.5,7a.1.1,0,0,0,0-.12h0v0q-.35-.45-.73-.89l.44-.3h0l.11-.07.56.67h0a.12.12,0,0,0,.14,0l.32-.2a.1.1,0,0,0,0-.11h0V6l-.57-.68.35-.24h0L21.3,5q.4.46.78.95l0,0a.13.13,0,0,0,.14,0l.3-.18A.1.1,0,0,0,22.58,5.67Z"/><path class="cls-10" d="M19.56,4.4l.68-.52.34.35.13.14h0a.13.13,0,0,0,.15,0L21,4.3h0l.14-.1,0,0h0a.09.09,0,0,0,0-.05.09.09,0,0,0,0,0h0V4h0l0-.05-.06-.07q-.48-.5-1-1l-.14-.13h0l0,0h-.39l0,0-.14.12h0v0h0v0h0V3h0V3h0a.1.1,0,0,0,0,.05l.25.23.21.2-1.2,1-.56.44h0v0h0a.08.08,0,0,0,0,0h0a.09.09,0,0,0,0,0l.24.24h0a.12.12,0,0,0,.15,0L18.75,5l.67-.51.14-.1"/><path class="cls-8" d="M19.56,4.4l.68-.52.34.35.13.14h0a.13.13,0,0,0,.15,0L21,4.3h0l.14-.1,0,0h0a.09.09,0,0,0,0-.05.09.09,0,0,0,0,0h0V4h0l0-.05-.06-.07q-.48-.5-1-1l-.14-.13h0l0,0h-.39l0,0-.14.12h0v0h0v0h0V3h0V3h0a.1.1,0,0,0,0,.05l.25.23.21.2-1.2,1-.56.44h0v0h0a.08.08,0,0,0,0,0h0a.09.09,0,0,0,0,0l.24.24h0a.12.12,0,0,0,.15,0L18.75,5l.67-.51Z"/><path class="cls-10" d="M18.78,3.17a1,1,0,0,0,.4-.7.67.67,0,0,0,0-.08h0a.66.66,0,0,0,0-.09h0v0h0v0h0l0,0h0l0,0h0l0,0h0l0,0h0l0,0h0l0,0h0l0,0,0,0h0l0,0h0l0,0h0l0,0,0,0h0l0,0h0l0,0h0l0,0h0l0,0h-.79l-.06,0h0l0,0h0l0,0h0l-.05,0h0l0,0h0l0,0h0l0,0,0,0,0,0,0,0,0,0h0l0,0-.56.55L15.91,3h0v0h0v0h0a.09.09,0,0,0,0,.07l.27.21a.13.13,0,0,0,.16,0L16.75,3l.43-.4.39.31.05,0,.27.23-.25.22-.6.53h0V4h0V4h0V4h0a.09.09,0,0,0,0,0l.26.23a.12.12,0,0,0,.16,0L17.78,4l1-.85m-.46-.37-.24-.21L18,2.53l-.34-.27-.05,0,0,0h0C17.81,2,18,2,18.12,2h0a.89.89,0,0,1,.19.12l.13.13a.33.33,0,0,1,.07.13v0h0s0,0,0,0h0v0h0v0h0v0h0l0,0h0v0h-.05l0,0h0l0,0,0,0"/><path class="cls-8" d="M19.18,2.48a.67.67,0,0,0,0-.08h0a.66.66,0,0,0,0-.09h0v0h0v0h0l0,0h0l0,0h0l0,0h0l0,0h0l0,0h0l0,0h0l0,0,0,0h0l0,0h0l0,0h0l0,0,0,0h0l0,0h0l0,0h0l0,0h0l0,0h-.79l-.06,0h0l0,0h0l0,0h0l-.05,0h0l0,0h0l0,0h0l0,0,0,0,0,0,0,0,0,0h0l0,0-.56.55L15.91,3h0v0h0v0h0a.09.09,0,0,0,0,.07l.27.21a.13.13,0,0,0,.16,0L16.75,3l.43-.4.39.31.05,0,.27.23-.25.22-.6.53h0V4h0V4h0V4h0a.09.09,0,0,0,0,0l.26.23a.12.12,0,0,0,.16,0L17.78,4l1-.85A1,1,0,0,0,19.18,2.48Zm-1.1.13L18,2.53l-.34-.27-.05,0,0,0h0C17.81,2,18,2,18.12,2h0a.89.89,0,0,1,.19.12l.13.13a.33.33,0,0,1,.07.13v0h0s0,0,0,0h0v0h0v0h0v0h0l0,0h0v0h-.05l0,0h0l0,0,0,0Z"/><path class="cls-10" d="M16.28,1.36l1-.21.16,0,.15,0h0A.11.11,0,0,0,17.73,1a.08.08,0,0,0,0,0h0L17.57.84,17.39.7,17.29.63h-.1L16,.87l.57-.63a.09.09,0,0,0,0-.08h0L16.36,0l0,0h-.4l0,0L15.8.17l-.35.4-.53.61-.64.73h0a.09.09,0,0,0,0,0h0a.09.09,0,0,0,0,.06h0l.3.19a.13.13,0,0,0,.16,0l.34-.37.24-.27.16,0,.18,0a1.2,1.2,0,0,1,0,.61,1.35,1.35,0,0,1-.31.51h0v0h0a.09.09,0,0,0,0,0h0a.09.09,0,0,0,0,.07l.28.2a.13.13,0,0,0,.16,0l.05-.06a1.7,1.7,0,0,0,.46-1.52"/><path class="cls-8" d="M16.28,1.36l1-.21.16,0,.15,0h0A.11.11,0,0,0,17.73,1a.08.08,0,0,0,0,0h0L17.57.84,17.39.7,17.29.63h-.1L16,.87l.57-.63a.09.09,0,0,0,0-.08h0L16.36,0l0,0h-.4l0,0L15.8.17l-.35.4-.53.61-.64.73h0a.09.09,0,0,0,0,0h0a.09.09,0,0,0,0,.06h0l.3.19a.13.13,0,0,0,.16,0l.34-.37.24-.27.16,0,.18,0a1.2,1.2,0,0,1,0,.61,1.35,1.35,0,0,1-.31.51h0v0h0a.09.09,0,0,0,0,0h0a.09.09,0,0,0,0,.07l.28.2a.13.13,0,0,0,.16,0l.05-.06A1.7,1.7,0,0,0,16.28,1.36Z"/><path class="cls-7" d="M20.24,5.71h0L19.8,6q.38.44.73.89v0h0l-.3-1.23h0"/><path class="cls-8" d="M20.24,5.71h0L19.8,6q.38.44.73.89v0h0l-.3-1.23Z"/><path class="cls-7" d="M21.42,6h0l-.24-1h0l-.35.24.57.68V6"/><path class="cls-8" d="M21.42,6h0l-.24-1h0l-.35.24.57.68Z"/><polygon class="cls-7" points="21.43 6.02 21.43 6.02 21.43 6.02 21.43 6.02"/><polygon class="cls-8" points="21.43 6.02 21.43 6.02 21.43 6.02 21.43 6.02"/><path class="cls-7" d="M22.11,3.79h0v0q-.48-.61-1-1.19l0,0,0,0h-.24l-.07-.27h0v0h0Q20.12,1.5,19.47.9h0l0,0H19l0,0L18.88,1a.1.1,0,0,0,0,.06h0L18.69.43v0h0v0h0v0h0v0h0l0,0h0l0,0h0l0,0h0l0,0h0l0,0h0l0,0h0l0,0h0l0,0h0l0,0,0,0h0l0,0h0l0,0h0l0,0h0l0,0h-.68L17.26-.9h0l-.39-.28h-.1l-.49.1-.14-.55h0l-.16-.11,0,0h-.4l0,0-.3.34L15-2.19v0h0v0h0v0h0v0h0l0,0h0l0,0h0l0,0h0l0,0h0l0,0h0l0,0h0l0,0h0l0,0h0l0,0-.16-.11-.06,0h0l-.06,0h-.7l-.05,0h0l0,0h0l0,0h0l0,0h0l0,0h0l0,0h0l0,0h0l0,0h0l0,0h0l0,0A.65.65,0,0,0,13.1-2l.32,1.28h-.19L13-1.52h0l-.16-.09h-.37l0,0h0l0,0a.67.67,0,0,0-.08.55L12.79.85h0v0h0V.67s0,0,0,0h0v0h0v0h0v0h0v0h0v0h0v0h0v0h0v0h0l0,0,0,0h0l0,0h.37l.16.09h0a.09.09,0,0,1,0,.08.41.41,0,0,0-.08.24.39.39,0,0,0,0,.09h0v0h0v0h.1l0,0,.07,0,0,0h.4l0,0,0,0h0V1h0v0h0v0h0a.23.23,0,0,0,0,0h0v0h0a1.16,1.16,0,0,0-.24-.4L13.84.33l0,0-.07-.1L13.67.07a1,1,0,0,1-.1-.24h0v0h0v0h0V-.32s0,0,0,0v0h0v0h0v0h0v0h0V-.56h0V-.66l0,0h0l0,0,0,0h0l0,0h0l0,0h0l0,0h0l0,0h0l0,0h0l0,0h.07l.05,0h.7l.06,0h0L15-.9l.16.11,0,0h0l0,0h0l0,0h0l0,0h0l0,0h0l0,0h0l0,0h0v0h0v0h0v0h0v0h0v0h0v0h0a.79.79,0,0,1-.06.57.84.84,0,0,1-.11.16.13.13,0,0,1-.16,0h0L14.77.24h0a.09.09,0,0,1,0-.06h0v0l0,0h0V0h0V0h0V0h0v0h0v0h0v0h0v0a.4.4,0,0,0-.14-.21l-.07,0,0,0-.09,0h0a.22.22,0,0,0-.19.06.18.18,0,0,0,0,.08.21.21,0,0,0,0,.08h0v0h0v0h0v0h0l0,0h0l0,0h0l0,0h0l0,0h0l0,0h0l0,0h0l0,0,0,0h0v0h.06v0h0V.37h0v0h0v0h0V.55h0v0h0V.66h0a.67.67,0,0,1-.17.64.91.91,0,0,1-.44.27l.1.4h0a.08.08,0,0,1,0,0h0l.64-.73.53-.61.35-.4L15.91,0l0,0h.4l0,0,.16.11h0a.09.09,0,0,1,0,.08L16,.87,17.19.61h.1l.09.07.19.14.11.08h0a.08.08,0,0,1,0,0,.11.11,0,0,1-.09.07h0l-.15,0-.16,0-1,.21a1.7,1.7,0,0,1-.46,1.52l.06.25v0h0v0h0l.68-.67.56-.55,0,0h0l0,0,0,0,0,0,0,0,0,0h0l0,0h0l0,0h0l.05,0h0l0,0h0l0,0h0l.06,0h.79l0,0h0l0,0h0l0,0h0l0,0h0l0,0,0,0h0l0,0h0l0,0h0l0,0,0,0h0l0,0h0l0,0h0l0,0h0l0,0h0l0,0h0l0,0h0v0h0v0h0a.67.67,0,0,1,0,.09h0a.68.68,0,0,1,0,.08,1,1,0,0,1-.4.7l-1,.85L18,5h0a.09.09,0,0,1,0,0h0v0h0l.56-.44,1.2-1-.21-.2L19.35,3a.1.1,0,0,1,0-.05h0V3h0v0h0v0h0v0h0l.14-.12,0,0h.39l0,0h0l.14.13q.51.48,1,1l.06.07.05.05h0v0h0a.09.09,0,0,1,0,0,.09.09,0,0,1,0,.05h0l0,0L21,4.3h0l-.13.09a.13.13,0,0,1-.15,0h0l-.13-.14-.34-.35-.68.52-.14.1L18.75,5,19,6h0v0h0l.62-.44.44-.31h0l.59-.42L21,4.46h0l.08-.06,0,0h.36l0,0,0,0q.52.58,1,1.19v0h0Z"/><path class="cls-8" d="M22.11,3.79h0v0q-.48-.61-1-1.19l0,0,0,0h-.24l-.07-.27h0v0h0Q20.12,1.5,19.47.9h0l0,0H19l0,0L18.88,1a.1.1,0,0,0,0,.06h0L18.69.43v0h0v0h0v0h0v0h0l0,0h0l0,0h0l0,0h0l0,0h0l0,0h0l0,0h0l0,0h0l0,0h0l0,0,0,0h0l0,0h0l0,0h0l0,0h0l0,0h-.68L17.26-.9h0l-.39-.28h-.1l-.49.1-.14-.55h0l-.16-.11,0,0h-.4l0,0-.3.34L15-2.19v0h0v0h0v0h0v0h0l0,0h0l0,0h0l0,0h0l0,0h0l0,0h0l0,0h0l0,0h0l0,0h0l0,0-.16-.11-.06,0h0l-.06,0h-.7l-.05,0h0l0,0h0l0,0h0l0,0h0l0,0h0l0,0h0l0,0h0l0,0h0l0,0h0l0,0A.65.65,0,0,0,13.1-2l.32,1.28h-.19L13-1.52h0l-.16-.09h-.37l0,0h0l0,0a.67.67,0,0,0-.08.55L12.79.85h0v0h0V.67s0,0,0,0h0v0h0v0h0v0h0v0h0v0h0v0h0v0h0v0h0l0,0,0,0h0l0,0h.37l.16.09h0a.09.09,0,0,1,0,.08.41.41,0,0,0-.08.24.39.39,0,0,0,0,.09h0v0h0v0h.1l0,0,.07,0,0,0h.4l0,0,0,0h0V1h0v0h0v0h0a.23.23,0,0,0,0,0h0v0h0a1.16,1.16,0,0,0-.24-.4L13.84.33l0,0-.07-.1L13.67.07a1,1,0,0,1-.1-.24h0v0h0v0h0V-.32s0,0,0,0v0h0v0h0v0h0v0h0V-.56h0V-.66l0,0h0l0,0,0,0h0l0,0h0l0,0h0l0,0h0l0,0h0l0,0h0l0,0h.07l.05,0h.7l.06,0h0L15-.9l.16.11,0,0h0l0,0h0l0,0h0l0,0h0l0,0h0l0,0h0l0,0h0v0h0v0h0v0h0v0h0v0h0v0h0a.79.79,0,0,1-.06.57.84.84,0,0,1-.11.16.13.13,0,0,1-.16,0h0L14.77.24h0a.09.09,0,0,1,0-.06h0v0l0,0h0V0h0V0h0V0h0v0h0v0h0v0h0v0a.4.4,0,0,0-.14-.21l-.07,0,0,0-.09,0h0a.22.22,0,0,0-.19.06.18.18,0,0,0,0,.08.21.21,0,0,0,0,.08h0v0h0v0h0v0h0l0,0h0l0,0h0l0,0h0l0,0h0l0,0h0l0,0h0l0,0,0,0h0v0h.06v0h0V.37h0v0h0v0h0V.55h0v0h0V.66h0a.67.67,0,0,1-.17.64.91.91,0,0,1-.44.27l.1.4h0a.08.08,0,0,1,0,0h0l.64-.73.53-.61.35-.4L15.91,0l0,0h.4l0,0,.16.11h0a.09.09,0,0,1,0,.08L16,.87,17.19.61h.1l.09.07.19.14.11.08h0a.08.08,0,0,1,0,0,.11.11,0,0,1-.09.07h0l-.15,0-.16,0-1,.21a1.7,1.7,0,0,1-.46,1.52l.06.25v0h0v0h0l.68-.67.56-.55,0,0h0l0,0,0,0,0,0,0,0,0,0h0l0,0h0l0,0h0l.05,0h0l0,0h0l0,0h0l.06,0h.79l0,0h0l0,0h0l0,0h0l0,0h0l0,0,0,0h0l0,0h0l0,0h0l0,0,0,0h0l0,0h0l0,0h0l0,0h0l0,0h0l0,0h0l0,0h0v0h0v0h0a.67.67,0,0,1,0,.09h0a.68.68,0,0,1,0,.08,1,1,0,0,1-.4.7l-1,.85L18,5h0a.09.09,0,0,1,0,0h0v0h0l.56-.44,1.2-1-.21-.2L19.35,3a.1.1,0,0,1,0-.05h0V3h0v0h0v0h0v0h0l.14-.12,0,0h.39l0,0h0l.14.13q.51.48,1,1l.06.07.05.05h0v0h0a.09.09,0,0,1,0,0,.09.09,0,0,1,0,.05h0l0,0L21,4.3h0l-.13.09a.13.13,0,0,1-.15,0h0l-.13-.14-.34-.35-.68.52-.14.1L18.75,5,19,6h0v0h0l.62-.44.44-.31h0l.59-.42L21,4.46h0l.08-.06,0,0h.36l0,0,0,0q.52.58,1,1.19v0h0Z"/><path class="cls-7" d="M17,4h0V4h0V4h0V4h0l.6-.53.25-.22L17.61,3l-.05,0-.39-.31-.43.4L17,4h0"/><path class="cls-8" d="M17,4h0V4h0V4h0V4h0l.6-.53.25-.22L17.61,3l-.05,0-.39-.31-.43.4L17,4h0Z"/><path class="cls-7" d="M18,2.53l.09.07.24.21,0,0,0,0h0l0,0h.05v0h0l0,0h0v0h0v0h0v0h0v0a.33.33,0,0,0-.07-.13l-.13-.13A.88.88,0,0,0,18.15,2h0c-.17-.06-.31,0-.49.16h0l0,0,.05,0,.34.27"/><path class="cls-8" d="M18,2.53l.09.07.24.21,0,0,0,0h0l0,0h.05v0h0l0,0h0v0h0v0h0v0h0v0a.33.33,0,0,0-.07-.13l-.13-.13A.88.88,0,0,0,18.15,2h0c-.17-.06-.31,0-.49.16h0l0,0,.05,0Z"/><path class="cls-7" d="M15.29,2.68a.08.08,0,0,1,0,0h0v0h0a1.35,1.35,0,0,0,.31-.51,1.2,1.2,0,0,0,0-.61l-.18,0-.16,0-.24.27.21.84h0"/><path class="cls-8" d="M15.29,2.68a.08.08,0,0,1,0,0h0v0h0a1.35,1.35,0,0,0,.31-.51,1.2,1.2,0,0,0,0-.61l-.18,0-.16,0-.24.27.21.84h0Z"/><path class="cls-10" d="M14.59,1.33a.67.67,0,0,0,.17-.64h0V.61h0v0h0V.46h0v0h0v0h0V.28h0v0H14.5v0h0l0,0,0,0h0l0,0h0l0,0h0l0,0h0l0,0h0l0,0h0l0,0h0v0h0v0h0v0h0a.21.21,0,0,1,0-.08.18.18,0,0,1,0-.08.22.22,0,0,1,.19-.06h0l.09,0,0,0,.07,0a.4.4,0,0,1,.14.21v0h0v0h0v0h0v0h0V0h0V0h0v0h0l0,0v0h0a.09.09,0,0,0,0,.06h0l.31.19h0a.13.13,0,0,0,.16,0,.83.83,0,0,0,.11-.16.79.79,0,0,0,.06-.57h0v0h0v0h0v0h0v0h0v0h0v0h0l0,0h0l0,0h0l0,0h0l0,0h0l0,0h0l0,0h0l0,0L15-.9l-.06,0h0l-.06,0h-.7l-.05,0H14l0,0h0l0,0h0l0,0h0l0,0h0l0,0h0l0,0h0l0,0,0,0h0l0,0v.08h0V-.5h0v0h0v0h0v0h0v0s0,0,0,0v0h0v0h0v0h0v0h0a1,1,0,0,0,.1.24l.07.12.07.1,0,0,.07.09a1.16,1.16,0,0,1,.24.4h0v0h0a.21.21,0,0,1,0,0h0v0h0V1h0V1h0l0,0,0,0h-.4l0,0-.07,0,0,0h-.1v0h0v0h0a.4.4,0,0,1,0-.09A.41.41,0,0,1,13.5.43a.09.09,0,0,0,0-.08h0L13.3.21h-.37l0,0h0l0,0,0,0h0v0h0v0h0v0h0v0h0v0h0v0h0v0h0v0h0s0,0,0,0V.79h0v0h0l0,.08a1,1,0,0,0,.32.45l.16.11a1.13,1.13,0,0,0,.86.1.92.92,0,0,0,.44-.27"/><path class="cls-8" d="M14.59,1.33a.67.67,0,0,0,.17-.64h0V.61h0v0h0V.46h0v0h0v0h0V.28h0v0H14.5v0h0l0,0,0,0h0l0,0h0l0,0h0l0,0h0l0,0h0l0,0h0l0,0h0v0h0v0h0v0h0a.21.21,0,0,1,0-.08.18.18,0,0,1,0-.08.22.22,0,0,1,.19-.06h0l.09,0,0,0,.07,0a.4.4,0,0,1,.14.21v0h0v0h0v0h0v0h0V0h0V0h0v0h0l0,0v0h0a.09.09,0,0,0,0,.06h0l.31.19h0a.13.13,0,0,0,.16,0,.83.83,0,0,0,.11-.16.79.79,0,0,0,.06-.57h0v0h0v0h0v0h0v0h0v0h0v0h0l0,0h0l0,0h0l0,0h0l0,0h0l0,0h0l0,0h0l0,0L15-.9l-.06,0h0l-.06,0h-.7l-.05,0H14l0,0h0l0,0h0l0,0h0l0,0h0l0,0h0l0,0h0l0,0,0,0h0l0,0v.08h0V-.5h0v0h0v0h0v0h0v0s0,0,0,0v0h0v0h0v0h0v0h0a1,1,0,0,0,.1.24l.07.12.07.1,0,0,.07.09a1.16,1.16,0,0,1,.24.4h0v0h0a.21.21,0,0,1,0,0h0v0h0V1h0V1h0l0,0,0,0h-.4l0,0-.07,0,0,0h-.1v0h0v0h0a.4.4,0,0,1,0-.09A.41.41,0,0,1,13.5.43a.09.09,0,0,0,0-.08h0L13.3.21h-.37l0,0h0l0,0,0,0h0v0h0v0h0v0h0v0h0v0h0v0h0v0h0v0h0s0,0,0,0V.79h0v0h0l0,.08a1,1,0,0,0,.32.45l.16.11a1.13,1.13,0,0,0,.86.1A.92.92,0,0,0,14.59,1.33Z"/><path class="cls-7" d="M14.12,1.69s0-.12,0-.1a.92.92,0,0,1-.51,0l-.08,0a.06.06,0,0,0,0-.07.05.05,0,0,0-.05,0h-.09c-.05,0-.06,0-.09,0h0a.16.16,0,0,0-.13-.13.21.21,0,0,1-.05-.1.06.06,0,0,0-.11,0,1.13,1.13,0,0,0,0-.21c0-.13-.19-.39-.08-.52s0-.13-.1-.07,0,.4,0,.56a.62.62,0,0,1,0,.49.74.74,0,0,0-.12.29c0,.1.08.16.17.11s.08-.12.1-.18a.64.64,0,0,1,0-.14c0-.07.06-.09.16-.05l0,0a1.5,1.5,0,0,1,0,.18.06.06,0,0,0,.08.06l.06,0h0a.05.05,0,0,0,.06,0c.13,0,.13.27.2.36a.06.06,0,0,0,.08,0c.09-.07.15-.17.24-.24s.2-.1.28-.17"/><path class="cls-7" d="M13,2.05a.05.05,0,0,0,0,0,.06.06,0,0,0-.1-.06.38.38,0,0,0-.13.15.11.11,0,0,0,.05.14c.11,0,.13-.13.16-.2"/><path class="cls-7" d="M15.73,3.87s0-.11-.09-.07a.28.28,0,0,0-.13.27.06.06,0,0,0,.07,0c.1,0,.21-.14.16-.24"/><path class="cls-7" d="M17.78,1a.32.32,0,0,0-.09-.1c-.06-.05-.1-.11-.16-.16a.35.35,0,0,0-.11-.07.35.35,0,0,1-.1-.07.05.05,0,0,0-.05-.06h0a.06.06,0,0,0-.08,0,4,4,0,0,0-.53.1,3.57,3.57,0,0,1-.54.17c0-.06.16-.13.2-.17l.17-.23A.45.45,0,0,0,16.6.06a.06.06,0,0,0-.12,0c0,.16-.17.32-.25.44A1.14,1.14,0,0,1,16,.73a.18.18,0,0,0-.07.1s0,.09,0,.1a.83.83,0,0,0,.44-.08,2.65,2.65,0,0,1,.45-.12,3.43,3.43,0,0,1,.36-.07l.08.07.12,0c.07,0,.1.1.15.16l.07.05h0a2.79,2.79,0,0,1-.35.11,3.44,3.44,0,0,0-.37.05,2.81,2.81,0,0,0-.61.15c-.07,0,0,.14,0,.11a1.37,1.37,0,0,1,.21-.05l.4-.1c.12,0,.24,0,.37,0a3.15,3.15,0,0,0,.32-.11.06.06,0,0,0,0-.06c0,.05.14,0,.1-.06"/><path class="cls-7" d="M14.77.16a.46.46,0,0,0,0-.58.78.78,0,0,0-.26-.15.22.22,0,0,0-.23,0c-.07,0,0,.14,0,.11s.28.05.34.12a.32.32,0,0,1,0,.42.06.06,0,0,0,.1.07"/><path class="cls-7" d="M15.47.25a1,1,0,0,0-.09-.86A1.46,1.46,0,0,0,15-.9L14.75-1a.05.05,0,0,0-.05-.06,4,4,0,0,0-.78.09.06.06,0,0,0,0,.12A5.38,5.38,0,0,1,14.51-1h0c.12,0,.22.09.31.14a1.87,1.87,0,0,1,.38.26.89.89,0,0,1,.12.77c0,.07.1.12.11,0"/><path class="cls-7" d="M18.61,6.5a.06.06,0,0,0-.06-.06h0a.33.33,0,0,0-.1.07.06.06,0,0,0,0,.09.13.13,0,0,0,.21-.1"/><path class="cls-7" d="M21.44,6.1a.52.52,0,0,0-.14-.35l-.15-.2c-.08-.11-.17-.19-.25-.29a.06.06,0,0,0-.09.08c.11.13.22.25.32.39s.21.23.19.36a.06.06,0,0,0,.12,0"/><path class="cls-7" d="M22.57,5.73a.34.34,0,0,0,0-.25,4.31,4.31,0,0,1-.17-.66c0-.08-.13-.06-.12,0a2.4,2.4,0,0,0,.07.37c0,.07.06.15.09.23l-.08-.09a7.42,7.42,0,0,1-.5-.6,3,3,0,0,0-.21-.29.06.06,0,0,0,0-.08.33.33,0,0,0-.13-.06l.18-.08c.07,0,0-.14,0-.11l-.43.2-.11,0a.06.06,0,0,0,0,0l-.26.16c-.15.1-.27.22-.4.33s-.25.13-.36.21c-.27.18-.52.39-.8.57a.86.86,0,0,0-.26.21l0-.07a.51.51,0,0,1,0-.11.06.06,0,0,0-.07-.08.75.75,0,0,0,0-.13c0-.09-.05-.17-.07-.26a.41.41,0,0,0,0-.16.11.11,0,0,0-.14,0c-.11,0-.18.14-.28.2a.25.25,0,0,0-.18,0h0a0,0,0,0,0-.06,0v0a0,0,0,0,0,0-.07L18,5l0-.05a.07.07,0,0,0,0-.09.06.06,0,0,0-.09-.06v0a.06.06,0,0,0,0,0h0a.84.84,0,0,0,0-.17c0-.15-.08-.27-.09-.42v0l0,0c.06-.05,0-.14-.08-.09a4.54,4.54,0,0,1-.44.37h0s-.06,0-.08-.06a.32.32,0,0,0-.08-.08.23.23,0,0,0-.14,0,.22.22,0,0,0,0-.05c0-.1-.09-.17-.12-.26s0-.17,0-.26a2.34,2.34,0,0,1-.12-.47.06.06,0,0,0,0,0l0,0c.06-.05,0-.14-.08-.09a5.77,5.77,0,0,1-.46.45h0a1.06,1.06,0,0,1-.2-.07A.84.84,0,0,1,16,3.22l-.05,0a.27.27,0,0,0-.07-.13l0,0V3a.06.06,0,0,0,0-.08,1.63,1.63,0,0,0-.21,0l-.08,0a.05.05,0,0,0-.06,0s-.06-.09-.11-.12l-.09,0a.31.31,0,0,0,0-.1,1.33,1.33,0,0,0-.07-.29c0-.1,0-.4-.14-.47s-.08,0-.13,0-.09.13-.15.18l-.12.08h0c-.06,0-.14,0-.22,0l-.06,0a.05.05,0,0,0,0-.07c-.14-.17.22-.41.3-.52a6,6,0,0,1,.52-.6c.17-.18.29-.38.46-.55s.35-.47.67-.38c.07,0,.11-.09,0-.11a.54.54,0,0,0-.56.15c-.13.13-.27.26-.39.4s-.24.35-.4.5-.46.54-.7.8l-.08.11a.25.25,0,0,1,0-.07c0-.08-.12-.06-.12,0a.88.88,0,0,0,.08.21.05.05,0,0,0,0,0,.4.4,0,0,1-.08.26.06.06,0,0,0,0,.1l0,0a.06.06,0,0,0,.08,0s.1-.1.16-.1.11,0,.16.05.15-.06.21-.12h0A.82.82,0,0,0,15,2.14c.11-.12,0-.18.11.05a4,4,0,0,1,.1.4,2.41,2.41,0,0,1,0,.29.06.06,0,0,0,.1,0c.08-.07.17.14.23.17a.31.31,0,0,0,.17,0h0c.18.06.16.32.1.47s0,.12,0,.16a.06.06,0,0,0,.08,0c.1-.15.25-.15.41-.19l0,0a.06.06,0,0,0,.06,0,2,2,0,0,0,.31-.3c0,.19.11.37.12.56a.36.36,0,0,0,0,.13c0,.05.06.09.08.14s0,.17,0,.27a.06.06,0,0,0,.08.07c.12,0,.18,0,.23.12a.06.06,0,0,0,.08,0,1.89,1.89,0,0,0,.48-.35.93.93,0,0,0,0,.15.68.68,0,0,1,0,.28,1.11,1.11,0,0,1-.11.33c-.09.21.13.13.26.15s.05.11.07.18,0,.1.06.12a.22.22,0,0,0,.13,0h.09a.5.5,0,0,0,.24-.12s.09-.09.11-.09.06.1.07.15a1.79,1.79,0,0,1,.05.36.33.33,0,0,0,0,.15s0,0,0,0a.54.54,0,0,0,0,.17l0,0,0,.06s0,.06,0,.08,0,0-.06.05l0,.06a.08.08,0,0,0,0,.08c0,.06.13,0,.17,0s.11-.1.17-.12a1.3,1.3,0,0,1,.23.44.36.36,0,0,0,.09.18,1.41,1.41,0,0,0,.26.15,2.43,2.43,0,0,1,.27.22v0c.11.1.18.07.3,0s.26-.1.31-.22l0,0c.11-.18-.09-.31-.2-.43l-.17-.22A2.77,2.77,0,0,1,20,6.16c-.05-.08-.06-.12,0-.16l.35-.25a0,0,0,0,0,0,0c.12,0,.18.31.23.39s.21.1.34.18A.06.06,0,0,0,21,6.29c-.06-.14-.21-.21-.3-.33a1.1,1.1,0,0,0-.34-.38.06.06,0,0,0-.07,0,1.28,1.28,0,0,0-.38.27c-.06,0-.12.07-.14.13a.05.05,0,0,0,0,.06v0c0,.17.27.32.38.45s.33.35.34.46a0,0,0,0,0,0,0c0,.09-.17.13-.24.17s-.11.09-.17.06-.17-.18-.25-.28-.24-.31-.34-.48a.74.74,0,0,0-.23-.26h0a.18.18,0,0,0-.1-.1.06.06,0,0,0-.06,0l0,0c0-.19.36-.3.51-.41a7.25,7.25,0,0,1,.73-.52c.21-.11.35-.29.55-.42a4.79,4.79,0,0,1,.42-.25h.1c.16,0,.36.32.44.43s.21.26.32.39.3.28.29.41a.05.05,0,0,0,0,0c-.06.1-.16.15-.27.23L22.06,6a.17.17,0,0,0,0-.12A.21.21,0,0,0,22,5.81l0-.06a1.12,1.12,0,0,0-.15-.2.06.06,0,0,0-.06,0v0a.06.06,0,0,0-.08,0v0A1.54,1.54,0,0,0,21.3,5c-.06,0-.13,0-.07.1a1.23,1.23,0,0,1,.35.61c0,.1,0,.08.08.15a.06.06,0,0,0,.06,0c.19-.08.2.16.17.26s0,.09.07.08.15-.11.23-.17.31-.15.38-.31"/><path class="cls-7" d="M21.83,6.31c0-.06,0-.11-.08-.09h0a.21.21,0,0,0-.1,0,.06.06,0,0,0,0,.1.14.14,0,0,0,.18-.06"/><path class="cls-7" d="M21.28,4.21l0-.09v0a.06.06,0,0,0,0-.08.43.43,0,0,0-.11-.17,3.24,3.24,0,0,1-.32-.34,1.67,1.67,0,0,0-.2-.2c-.31-.28-.56-.63-1-.71-.08,0-.09.1,0,.12.25.05.32.16.49.33s.31.26.46.4.21.28.34.4.17.11.25.26a.48.48,0,0,1-.24.21c-.16,0-.26-.13-.35-.23s-.16-.27-.3-.24-.06.13,0,.12.23.23.26.27a.51.51,0,0,0,.28.2.48.48,0,0,0,.4-.19h0c0,.07.15,0,.11,0"/><path class="cls-7" d="M18.41,2.84a.53.53,0,0,0,.21-.48c0-.07,0-.11,0-.17a1.1,1.1,0,0,0-.32-.2l0,0-.11,0H18a.67.67,0,0,0-.45.19.06.06,0,0,0,0,.08l0,0c.08.07.12.16.2.23a1.36,1.36,0,0,0,.21.13.23.23,0,0,0,.18.15c.05.13.16.22.28.12m-.08-.09s0,0-.07,0a.13.13,0,0,1,0-.06.06.06,0,0,0-.05,0,.13.13,0,0,1-.1-.06.05.05,0,0,0,0-.06h0a.06.06,0,0,0-.06,0,.74.74,0,0,1-.2-.13l-.09-.1h0a.4.4,0,0,1,.55-.1l.12.07c.09.05.09.07.11.17a.27.27,0,0,1,0,.18c0,.05-.1.19-.16.2"/><path class="cls-7" d="M19.07,1.92a2,2,0,0,1-.35-.22,1.47,1.47,0,0,0-.22-.16,1.1,1.1,0,0,0-.27-.14.07.07,0,0,0-.08,0,2.5,2.5,0,0,0-.53.15l-.19.12a1.9,1.9,0,0,1-.33.14.06.06,0,0,0,0,.11c.08,0,.17,0,.26-.09s.17-.12.27-.17a1.25,1.25,0,0,1,.39-.11h0a.86.86,0,0,1,.51.24c.06,0,.11.11.18.15S18.93,2,19,2s.13-.06.07-.1"/><path class="cls-11" d="M13.73,12.93l-.21-1.33-.1-1L13.2,9.4l-.93-.17L10.58,9l-.79.44,1.89.12-.1.07,0,.59v.84l-.1.56-.38.42-.77.46-.79.29-1,.27-.64.13-.6,0L6.71,13l-.3-.15-.22-.15L6,12.41,5.94,12l-.22-1,0-.25-.58-.12-.88-.16-.87-.19L2.1,10.6l1.84.26L4,11l0,.45.18.69.13,1,.15,1.18.05.22,1-.12L7.56,14l3.61-.64,2.56-.48"/><path class="cls-5" d="M2.36,13.31l.07.22h0l.08,0a3,3,0,0,1,.52.21l.08,0a2.57,2.57,0,0,1,.46.25c.17.1.35.18.53.27l.26.14.11.06h.3l.32,0,.49-.09.26-.05.94-.12.58-.11.24,0,1.11-.2,1.08-.19L11,13.5l1-.18.31-.08.62-.11.82-.12c.05,0,.07,0,.05-.09a8.16,8.16,0,0,1-.16-1c0-.18-.06-.36-.08-.54s0-.6-.08-.9a2.13,2.13,0,0,0-.1-.5,1.47,1.47,0,0,1-.08-.51.42.42,0,0,0,0-.06c0-.13,0-.14-.17-.14H12.9c-.34,0-.67-.1-1-.15l-.21-.05-.53,0A2.93,2.93,0,0,1,10.67,9h0l-.06,0-.16.07h0L10,9.24h0l-.24.11c-.1.06-.14.11-.15.19V9.6a.32.32,0,0,1,0,.1,3,3,0,0,1,0,.81,1.24,1.24,0,0,1-.33.61,1.7,1.7,0,0,1-.34.24c-.21.13-.42.27-.63.39a1.33,1.33,0,0,1-.46.15c-.13,0-.26.06-.39.09h0a6.91,6.91,0,0,1-1.19.09l-.29,0c0-.19-.06-.37-.1-.56s-.05-.23-.08-.35,0-.25-.06-.38,0-.11-.11-.11H5.54l-.19,0-.4-.07-.56-.13a.94.94,0,0,0-.26,0,1,1,0,0,1-.21,0,3,3,0,0,1-.43-.1l-.09,0-.21,0-.07,0-.8.18H2.19s-.17,0-.19,0,0,.16,0,.21A1,1,0,0,1,2,11a4.42,4.42,0,0,1,.08.45l0,.21c0,.36.08.72.12,1.08,0,.18.05.36.08.54a.05.05,0,0,1,0,0v0m2.39-2.69.48.09H5.12l-.28,0-.47.06-.43.07-.08,0-.1,0-.56-.09-.58-.06-.28-.05v0l.1,0,.38-.1a1.05,1.05,0,0,1,.59-.07c.13,0,.26,0,.39.07l.19,0,.4.08.37,0m5-1.05h.51c.25,0,.5,0,.76,0l.32,0c.1,0,.1,0,.1.12,0,.31,0,.61,0,.92a3.34,3.34,0,0,1-.06.86.43.43,0,0,1-.1.23l-.25.24a3.27,3.27,0,0,1-.74.46c-.08,0-.15.09-.23.13l-.51.2A4.47,4.47,0,0,1,8.9,13l-.48.11a2.52,2.52,0,0,1-1,.07l-.34-.08a2.34,2.34,0,0,1-.63-.22.82.82,0,0,1-.42-.62,3.06,3.06,0,0,0,.32,0,7.21,7.21,0,0,0,1.1-.11c.21,0,.42-.1.63-.15a1.62,1.62,0,0,0,.5-.21l.29-.19a3.85,3.85,0,0,0,.49-.34,1.2,1.2,0,0,0,.36-.53,1.34,1.34,0,0,0,.07-.35c0-.17,0-.34,0-.51s0-.18,0-.28m2.53-.24.32.06v0l-.1,0-.46,0-.37,0a.39.39,0,0,0-.24,0s-.09,0-.14,0l-.25,0H10v0a1.45,1.45,0,0,1,.6-.24h.07a.31.31,0,0,1,.26,0H11l.53,0,.84.13m-7.68,5a.48.48,0,0,1,0-.13c0-.15-.05-.3-.07-.45-.05-.38-.1-.77-.16-1.15a7.09,7.09,0,0,0-.15-.8,3.59,3.59,0,0,1-.12-.8c0-.09,0-.11.1-.13h.14L5,10.83l.61,0a2.77,2.77,0,0,0,.07.35,4.44,4.44,0,0,1,.13.63l0,.26h0a.85.85,0,0,0,.06.2v0H6v0c0,.08.06.17.09.25a.52.52,0,0,0,.22.29,2.27,2.27,0,0,0,.62.28l.14,0a1.24,1.24,0,0,0,.43.09,2.51,2.51,0,0,0,.62,0l.39-.08a7.21,7.21,0,0,0,.93-.24,8.34,8.34,0,0,0,1.09-.45,4.85,4.85,0,0,0,.8-.53.67.67,0,0,0,.24-.29,2.42,2.42,0,0,0,.1-.71c0-.13,0-.25,0-.38s0-.52,0-.78,0-.18.19-.2l1-.1h.31l0,0,.15.68a1.9,1.9,0,0,1,0,.22c0,.29,0,.59.08.88s.1.74.15,1.1c0,.15,0,.31.05.46l-.24,0L13.1,13l-.74.14-.52.11-1.25.24-.67.12-.61.09-.41.07-.38.06L7.74,14c-.35.06-.69.16-1,.18l-.45,0a3.73,3.73,0,0,0-.42.07,5.59,5.59,0,0,1-1.11.14.08.08,0,0,1-.06,0m-2.09-.9a1.18,1.18,0,0,1-.14-.38c0-.22-.06-.44-.09-.66l-.08-.62-.1-.75-.05-.35h.19l.36,0a5.9,5.9,0,0,1,.76.09l.41.09C4,11,4,11,4,11.19a2.26,2.26,0,0,0,.09.64,4.45,4.45,0,0,1,.18.9c0,.22,0,.44.07.67s.09.55.13.83c0,.06,0,.12,0,.2l-.23-.07L4,14.2a4.25,4.25,0,0,1-.51-.28,4.69,4.69,0,0,0-.56-.29,2.65,2.65,0,0,0-.3-.11.13.13,0,0,1-.07,0"/><path class="cls-5" d="M22.53,14.8q0-.09,0-.18a2,2,0,0,0-.06-.45l0-.09-.19-.67a.29.29,0,0,1,0-.11.1.1,0,0,1,0-.07l.07,0,.08,0a.54.54,0,0,0,.28-.23l.06-.11a1.9,1.9,0,0,0,.16-.69.46.46,0,0,0,0-.11v0a3.15,3.15,0,0,0-.24-.43l0-.05a.58.58,0,0,0-.18-.11l-.11,0-.11,0-.22,0a1.18,1.18,0,0,0-.32,0l-.2.05a.7.7,0,0,0-.26.18l-.06.07a1,1,0,0,0-.16.31.82.82,0,0,0,0,.27.66.66,0,0,1,0,.15l0,.11c-.1.48-.27,1.25-.27,1.25l-.06.21q0,.1-.05.2a2.33,2.33,0,0,0-.05.62.18.18,0,0,0,.1.16.33.33,0,0,0,.15,0,.4.4,0,0,0,.16,0,.19.19,0,0,0,.08-.06l.11-.16,0-.08,0-.09c0-.1.07-.2.1-.31l0-.15,0-.15v0a.17.17,0,0,1,0-.07.06.06,0,0,1,.06,0h0c.05,0,.06.08.07.13a.2.2,0,0,1,0,0,.22.22,0,0,0,0,0c0,.18.05.36.08.54l0,.18a1.11,1.11,0,0,0,.12.28l.05.09a.31.31,0,0,0,.3.14h.08a.34.34,0,0,0,.23-.14.38.38,0,0,0,.05-.13.59.59,0,0,0,0-.08m-.83-2.49a.32.32,0,0,1,.21-.22.15.15,0,0,1,.19.17.46.46,0,0,0,0,.09,1.69,1.69,0,0,1-.13.19c-.07.08-.12.08-.2,0a.21.21,0,0,1-.07-.23m.38-.38h0"/><path class="cls-5" d="M29.16,13.81a2.06,2.06,0,0,1-.32-.18,1.29,1.29,0,0,0-.25-.1,1.85,1.85,0,0,0-.68-.11.23.23,0,0,0-.22.14c-.1.21-.19.42-.3.63a6.8,6.8,0,0,0-.48,1.41l-.1.33a.59.59,0,0,0,.27.68c.13.08.28.08.39.16A2.23,2.23,0,0,0,28,17a.26.26,0,0,0,.33-.11.56.56,0,0,0,0-.59l-.08-.06L28,16.1,27.73,16a.15.15,0,0,1-.07-.2c0-.12.09-.25.14-.37s.09-.11.18-.06a.87.87,0,0,0,.17.08c.09,0,.21.06.27,0a.34.34,0,0,0,.06-.6l-.19-.13c-.07,0-.14-.11-.11-.2s0-.27.18-.34a.14.14,0,0,1,.1,0,3.76,3.76,0,0,1,.39.13.3.3,0,0,0,.3,0c.15-.09.16-.41,0-.47"/><path class="cls-5" d="M26.77,14.4a5.17,5.17,0,0,0,0-.82c0-.09,0-.18,0-.27a1.06,1.06,0,0,0-.23-.61l-.09-.1-.09-.08-.1-.06-.1,0a.65.65,0,0,0-.3,0l-.1,0a.76.76,0,0,0-.24.12.65.65,0,0,0-.24.38,1.26,1.26,0,0,1-.08.3l-.06.12c-.08.16-.15.33-.22.5a3.4,3.4,0,0,0-.12.39l-.13.56,0,.16-.07.31,0,.16a.32.32,0,0,0,0,.09.61.61,0,0,0,0,.09.29.29,0,0,0,0,.07l0,.07a.26.26,0,0,0,.19.16h0a1.5,1.5,0,0,0,.4,0,1.47,1.47,0,0,0,.6-.22l.2-.14.19-.16.09-.09.16-.19.07-.1a1.85,1.85,0,0,0,.13-.24,1.37,1.37,0,0,0,.12-.44m-.75.18-.09.13a1.47,1.47,0,0,1-.22.22l-.06.05a.63.63,0,0,1-.14.1l-.09,0a.28.28,0,0,1-.15,0c-.06,0-.08-.09-.06-.19s0-.13.06-.19l0-.09,0-.09.15-.48.15-.48a.66.66,0,0,1,.08-.18.47.47,0,0,1,.13-.13l.11-.05a.93.93,0,0,1,.15.18l.06.1,0,.11a.69.69,0,0,1,0,.3.65.65,0,0,1,0,.1c0,.14-.08.29-.13.43a1,1,0,0,1-.07.14"/><path class="cls-5" d="M24.26,13.15a.34.34,0,0,0-.31-.26.29.29,0,0,0-.31.17,2.87,2.87,0,0,0-.12.29c0,.1,0,.2-.08.3l-.16.49a2,2,0,0,0-.13.89.24.24,0,0,0,.18.26.28.28,0,0,0,.37-.17c.09-.19.17-.38.25-.57s.09-.24.13-.36a4.19,4.19,0,0,0,.16-.47,1.16,1.16,0,0,0,0-.57"/><path class="cls-5" d="M24.26,12.43a.38.38,0,0,0,.24-.25.28.28,0,0,0-.19-.4.38.38,0,0,0-.43.4.28.28,0,0,0,.39.25"/><path class="cls-12" d="M27.06,15.8a.59.59,0,0,0,.27.68c.13.08.28.08.39.16a2.22,2.22,0,0,0,.49.18.26.26,0,0,0,.33-.11.56.56,0,0,0,0-.59l-.08-.06L28.22,16,28,15.85a.15.15,0,0,1-.07-.2c0-.12.09-.25.14-.37s.09-.11.18-.06a.87.87,0,0,0,.17.08c.09,0,.21.06.27,0a.34.34,0,0,0,.06-.6l-.19-.13c-.07,0-.14-.11-.11-.2s0-.27.18-.34a.14.14,0,0,1,.1,0,3.75,3.75,0,0,1,.39.13.3.3,0,0,0,.3,0c.15-.09.16-.41,0-.47a2.06,2.06,0,0,1-.32-.18,1.27,1.27,0,0,0-.25-.1,1.85,1.85,0,0,0-.68-.11.23.23,0,0,0-.22.14c-.1.21-.19.42-.3.63a6.81,6.81,0,0,0-.48,1.41l-.1.33"/><path class="cls-12" d="M23.52,14a2,2,0,0,0-.13.89.24.24,0,0,0,.18.26.28.28,0,0,0,.37-.17c.09-.19.17-.38.25-.57s.09-.24.13-.36a4.18,4.18,0,0,0,.16-.47,1.16,1.16,0,0,0,0-.57.34.34,0,0,0-.31-.26.29.29,0,0,0-.31.17,2.9,2.9,0,0,0-.12.29c0,.1,0,.2-.08.3l-.16.49"/><path class="cls-12" d="M24.55,11.64a.38.38,0,0,0-.43.4.28.28,0,0,0,.39.25.38.38,0,0,0,.24-.25.28.28,0,0,0-.19-.4"/><path class="cls-12" d="M22.39,15a.36.36,0,0,0,.38-.37,2,2,0,0,0-.09-.72l-.19-.67c0-.13,0-.17.1-.22l.08,0a.58.58,0,0,0,.34-.34,1.9,1.9,0,0,0,.16-.69.31.31,0,0,0,0-.15,3.13,3.13,0,0,0-.24-.43.51.51,0,0,0-.23-.16,2,2,0,0,0-.43-.12.82.82,0,0,0-.78.23.91.91,0,0,0-.26.65.66.66,0,0,1,0,.15l-.27,1.36h0l-.06.21a2.34,2.34,0,0,0-.11.82.18.18,0,0,0,.1.16.36.36,0,0,0,.38-.05,1.27,1.27,0,0,0,.19-.33c.07-.2.12-.41.19-.62,0,0,0-.12.09-.11s.09.08.1.14,0,0,0,.07c0,.24.07.48.12.72a1.4,1.4,0,0,0,.17.37.3.3,0,0,0,.3.14m0-3.16a.36.36,0,0,1,.06.36,1.52,1.52,0,0,1-.18.31.24.24,0,0,1-.34,0,.38.38,0,0,1-.15-.45.44.44,0,0,1,.46-.35.19.19,0,0,1,.15.08"/><path class="cls-12" d="M26.77,14.94a1.5,1.5,0,0,0,.25-.68,6,6,0,0,0,0-1.09,1.06,1.06,0,0,0-.23-.61.68.68,0,0,0-.78-.25.66.66,0,0,0-.48.51,1.27,1.27,0,0,1-.08.3,4.94,4.94,0,0,0-.4,1l-.13.56c0,.21-.1.42-.14.63a.44.44,0,0,0,0,.19,1.27,1.27,0,0,0,.08.15.27.27,0,0,0,.23.16,1.46,1.46,0,0,0,1-.22,2.23,2.23,0,0,0,.7-.67m-.3-1.07c0,.14-.08.29-.13.43a1.21,1.21,0,0,1-.38.49.63.63,0,0,1-.29.18c-.17,0-.25,0-.21-.2s.08-.25.12-.38l.31-1a.51.51,0,0,1,.32-.36.91.91,0,0,1,.26.39.67.67,0,0,1,0,.41"/><path class="cls-5" d="M20.92,13.52s.21-.9.3-1.36a.65.65,0,0,0,0-.15.91.91,0,0,1,.26-.65.82.82,0,0,1,.78-.23,2,2,0,0,1,.43.12.51.51,0,0,1,.23.16,3.15,3.15,0,0,1,.24.43.32.32,0,0,1,0,.15,1.9,1.9,0,0,1-.16.69.58.58,0,0,1-.34.34l-.08,0c-.12.06-.14.09-.1.22l.19.67a2,2,0,0,1,.09.72.36.36,0,0,1-.38.37.3.3,0,0,1-.3-.14,1.4,1.4,0,0,1-.17-.37c-.06-.24-.08-.48-.12-.72,0,0,0,0,0-.07s0-.13-.1-.14-.08.06-.09.11c-.06.21-.11.41-.19.62a1.27,1.27,0,0,1-.19.33.36.36,0,0,1-.38.05.18.18,0,0,1-.1-.16,2.34,2.34,0,0,1,.1-.82l.06-.21m.44.47c0-.08,0-.17.06-.26s0-.13.06-.19.09-.14.18-.14.21,0,.24.14A2.43,2.43,0,0,1,22,14a1.71,1.71,0,0,0,.22.75.17.17,0,0,0,.22.1.2.2,0,0,0,.17-.18,1.61,1.61,0,0,0,0-.56c-.09-.26-.17-.54-.25-.81a.31.31,0,0,1,.23-.42.38.38,0,0,0,.27-.22,4.71,4.71,0,0,0,.17-.44.75.75,0,0,0-.28-.76,2.45,2.45,0,0,0-.44-.18.68.68,0,0,0-.8.38,1.5,1.5,0,0,0-.08.25c0,.14,0,.27-.05.41s-.08.43-.13.65-.09.37-.13.55-.09.24-.11.36a5.74,5.74,0,0,0-.06.59c0,.08,0,.12.12.11a.16.16,0,0,0,.15-.11c.06-.16.12-.32.18-.48"/><path class="cls-5" d="M27.06,15.8l.1-.33a6.81,6.81,0,0,1,.48-1.41c.1-.21.2-.42.3-.63a.23.23,0,0,1,.22-.14,1.85,1.85,0,0,1,.68.11,1.29,1.29,0,0,1,.25.1,2.05,2.05,0,0,0,.32.18c.15.05.14.37,0,.47a.3.3,0,0,1-.3,0,3.75,3.75,0,0,0-.39-.13.14.14,0,0,0-.1,0c-.13.07-.14.21-.18.34s0,.15.11.2l.19.13a.34.34,0,0,1-.06.6c-.06,0-.18,0-.27,0a.88.88,0,0,1-.17-.08c-.1,0-.14,0-.18.06s-.1.25-.14.37a.15.15,0,0,0,.07.2l.24.11.23.09.08.06a.56.56,0,0,1,0,.59.26.26,0,0,1-.33.11,2.22,2.22,0,0,1-.49-.18c-.12-.07-.27-.08-.39-.16a.59.59,0,0,1-.27-.68m.43.58.42.16h0l.37.09c.1,0,.14,0,.17-.11a.28.28,0,0,0-.18-.36L28,16c-.27-.15-.29-.14-.21-.47a3.86,3.86,0,0,1,.14-.39c.06-.18.13-.2.31-.13a1.39,1.39,0,0,0,.33.08.11.11,0,0,0,.13-.14.55.55,0,0,0-.13-.2.86.86,0,0,0-.18-.12.2.2,0,0,1-.1-.21,1,1,0,0,1,.15-.43.25.25,0,0,1,.32-.13l.36.11c.16,0,.22,0,.19-.18a.12.12,0,0,0-.1-.11,1.69,1.69,0,0,1-.21-.09,1.73,1.73,0,0,0-.69-.21c-.23,0-.29,0-.38.24l-.34.81a3.28,3.28,0,0,0-.14.37c-.09.33-.17.66-.26,1a.48.48,0,0,0,.29.56"/><path class="cls-5" d="M24.88,14.7l.13-.56a4.94,4.94,0,0,1,.4-1,1.26,1.26,0,0,0,.08-.3.66.66,0,0,1,.48-.51.68.68,0,0,1,.78.25,1.06,1.06,0,0,1,.23.61,6,6,0,0,1,0,1.09,1.51,1.51,0,0,1-.25.68,2.23,2.23,0,0,1-.7.67,1.46,1.46,0,0,1-1,.22.27.27,0,0,1-.23-.16,1.26,1.26,0,0,1-.08-.15.44.44,0,0,1,0-.19c0-.21.09-.42.14-.63m.59-1.39a3.79,3.79,0,0,0-.27.64l-.21.94-.09.39a.28.28,0,0,0,.3.38,2.06,2.06,0,0,0,.54-.09,2,2,0,0,0,.68-.44,1.51,1.51,0,0,0,.5-1.2c0-.26,0-.53-.06-.79a.83.83,0,0,0-.27-.57.56.56,0,0,0-.94.27,2.09,2.09,0,0,1-.16.47"/><path class="cls-5" d="M23.52,14l.16-.49c0-.1,0-.21.08-.3a2.89,2.89,0,0,1,.12-.29.29.29,0,0,1,.31-.17.34.34,0,0,1,.31.26,1.16,1.16,0,0,1,0,.57,4.19,4.19,0,0,1-.16.47c0,.12-.08.24-.13.36s-.16.39-.25.57a.28.28,0,0,1-.37.17.24.24,0,0,1-.18-.26,2,2,0,0,1,.13-.89m.75-1-.11-.08a.09.09,0,0,0-.12,0,.57.57,0,0,0-.16.33,5.21,5.21,0,0,1-.24.81,2,2,0,0,0-.11.79.15.15,0,0,0,.19.16c.08,0,.12-.07.15-.14l.43-1.06a1.6,1.6,0,0,0,.09-.62.21.21,0,0,0-.11-.19"/><path class="cls-5" d="M24.55,11.64a.28.28,0,0,1,.19.4.38.38,0,0,1-.24.25.28.28,0,0,1-.39-.25.38.38,0,0,1,.43-.4m-.16.51A.2.2,0,0,0,24.6,12c0-.1,0-.16-.1-.19a.18.18,0,0,0-.23.12.19.19,0,0,0,.12.22"/><path class="cls-5" d="M22,12.59a.38.38,0,0,1-.15-.45.44.44,0,0,1,.46-.35.19.19,0,0,1,.15.08.36.36,0,0,1,.06.36,1.53,1.53,0,0,1-.18.31.24.24,0,0,1-.34,0m.24-.18a1.69,1.69,0,0,0,.13-.19.46.46,0,0,1,0-.09.15.15,0,0,0-.19-.17.32.32,0,0,0-.21.22.21.21,0,0,0,.07.23c.07.08.13.08.2,0"/><path class="cls-5" d="M25.86,13.22a.5.5,0,0,1,.44-.3l.08.13c0,.06.09.12.13.19a1.16,1.16,0,0,1,0,.93,1.52,1.52,0,0,1-.66.88.85.85,0,0,1-.29.11.27.27,0,0,1-.32-.33,2.1,2.1,0,0,1,.08-.24c.1-.29.22-.58.3-.88a2.07,2.07,0,0,1,.2-.5m.6.25a.91.91,0,0,0-.26-.39.51.51,0,0,0-.32.36l-.31,1c0,.13-.09.25-.12.38s0,.23.21.2A.63.63,0,0,0,26,14.8a1.21,1.21,0,0,0,.38-.49c.05-.14.09-.28.13-.43a.67.67,0,0,0,0-.41"/><path class="cls-10" d="M7.56,30.12A16.09,16.09,0,0,0,7,32.85c0,.47-.21,1.36.16,1.75l0,0c0,.08,0,.16,0,.24s.18.21.29.12a.21.21,0,0,0,.18,0c0,.08,0,.17,0,.25s.23.22.32.11a.8.8,0,0,0,.21.42.17.17,0,0,0,.23,0,.18.18,0,0,0,.28-.19c-.1-.38-.09-.77-.17-1.16s-.21-.82-.26-1.25a11.35,11.35,0,0,1,.11-2.52,12.88,12.88,0,0,1,.52-2.78,11.52,11.52,0,0,1,1.34-2.54.18.18,0,0,0-.18-.26h0c.09-.21-.21-.39-.31-.18l-.31.63c-.34.13-.6.93-.74,1.4l-.09.19-.26.49a10.79,10.79,0,0,0-.84,2.51m.54-.39a6.73,6.73,0,0,1,.17-.67q-.07.34-.11.69l-.06,0"/><path class="cls-12" d="M5.23,20.2c-.23,0-.31.32-.09.35l.23.06a.15.15,0,0,0,.06.09c.19.15.38.29.56.45l-.35-.07c-.19,0-.32.24-.13.33a8.59,8.59,0,0,1,1.09.53l.21.14-.54,0c-.21,0-.22.3,0,.35a4.61,4.61,0,0,1,.92.4.18.18,0,0,0,0,.09,1.32,1.32,0,0,0,.38.26c-.17,0-.21.26-.07.33a2.46,2.46,0,0,0,.44.18l.17.12c.15.1.3.19.46.27L8.28,24a1.91,1.91,0,0,0-.51-.12,2.18,2.18,0,0,0-.8.07H6.92c-.49.18-1.44.5-1.53,1.12,0,0,0,0,0,0l-.15.19-.12.19a.17.17,0,0,0-.12,0,1.15,1.15,0,0,0-.28.62.16.16,0,0,0,.07.18l-.09.34h0v0a.18.18,0,0,0,.35.09,4.73,4.73,0,0,1,.28-.81h0l-.12.38c-.07.22.28.31.35.09l0,0a.19.19,0,0,0,0-.06l0-.07,0,0c.24-.23.44-.49.66-.72l.11-.1a2.81,2.81,0,0,1-.16.32.18.18,0,0,0,.31.18l.13-.24a.17.17,0,0,0,.16,0A7.61,7.61,0,0,1,7.59,25l.33-.22a.51.51,0,0,1-.08.16c-.12.15,0,.4.22.28A4.24,4.24,0,0,1,8.63,25c.17-.08.32-.22.51-.21h0a1.91,1.91,0,0,1-.06.24c-.06.15.15.26.27.2a1,1,0,0,1,.38-.05l.42-.05.05,0h0l0,0,.06.07a.18.18,0,1,0,.25-.26.88.88,0,0,0-.19-.17l0,0a.19.19,0,0,0,0,0s0,0,0,0a1.89,1.89,0,0,1,.17-.16h0c0,.13.06.31.21.24l.11,0,.06,0c.12,0,.23.1.35.13l.12.09a1.4,1.4,0,0,0,.4.18l.15.09a.59.59,0,0,0,.07.15.43.43,0,0,0,.45-.23,2.61,2.61,0,0,1,.26.22c.17.17.3.36.48.51a.18.18,0,0,0,.3-.09,1.11,1.11,0,0,0,0-.39.22.22,0,0,0,0-.06l0-.08v0a5.9,5.9,0,0,1,.48.5.16.16,0,0,0,.09.06l0,.12c.07.22.42.12.34-.1s-.1-.26-.15-.4a3.35,3.35,0,0,1,.56.31,9.64,9.64,0,0,1,.86.77.18.18,0,0,0,.3-.09,2.2,2.2,0,0,0,0-.42l.21.14h0l.08.15c.11.21.41,0,.31-.18a3.71,3.71,0,0,0-1.88-1.75,1,1,0,0,0-.64-.24l-.22,0-.25-.11a.14.14,0,0,0-.17,0l-.16,0a.17.17,0,0,0-.15,0,6,6,0,0,0-2.41.31l-.08,0,0,0a1.41,1.41,0,0,0,.2-.19c.11-.13.19-.32.35-.4h0a.47.47,0,0,1,.15-.05c.23,0,.22-.39,0-.36a.81.81,0,0,0-.21.06l.07-.12a.18.18,0,0,0,.29,0,2.73,2.73,0,0,1,.26-.28l.24-.28c.13-.14.25-.34.44-.39a.18.18,0,0,0-.1-.34.7.7,0,0,0-.21.1.13.13,0,0,0-.09,0l.2-.19a2.66,2.66,0,0,1,.62-.57l0,0,.1,0a.18.18,0,0,0-.1-.34l-.12,0-.08,0,.24-.28c.14-.16.27-.33.42-.49s.22-.27.31-.28.22-.39,0-.36a.66.66,0,0,0-.3.14.19.19,0,0,0-.19,0,8,8,0,0,0-.69.62.16.16,0,0,0-.13.06,3.14,3.14,0,0,0-.32.41l-.09.09a3.39,3.39,0,0,0-.44.61,3.78,3.78,0,0,0-.62,1,.15.15,0,0,0,0,.13l0,.07h0l0,0a.15.15,0,0,0,0,.11c-.16.39-.38.75-.56,1.13,0-.5,0-1,0-1.5a1.07,1.07,0,0,0-.07-.56,5.83,5.83,0,0,0-.38-1.15,6,6,0,0,1-.54-1.14c0-.23-.39-.12-.34.1a1.34,1.34,0,0,0,.11.32c-.15-.07-.35.09-.24.24a4.1,4.1,0,0,1,.51.73,4.84,4.84,0,0,0,.27.52,1.77,1.77,0,0,1,.25.51v.06A1.87,1.87,0,0,0,9.6,22a.18.18,0,0,0-.25.26,6.38,6.38,0,0,1,.56,1.11h0a.18.18,0,0,0-.27.16,2.5,2.5,0,0,0,.16.57l0,0,0,0v0A.89.89,0,0,0,9.61,24a.17.17,0,0,0,0-.15,7.41,7.41,0,0,0-2-2.45,10.81,10.81,0,0,0-1.34-.71,3.29,3.29,0,0,0-1-.46m3.85,4.07-.27-.12.05,0,.21.14"/><path class="cls-5" d="M10.3,25.49a.69.69,0,0,0-.12.1c-.17.24-.36.47-.51.72a4.94,4.94,0,0,0-.49.95l-.31.85c-.06.18-.12.36-.18.55a1.16,1.16,0,0,0,0,.14c0,.25-.09.5-.14.74,0,.08-.06.15-.07.22-.05.29-.1.57-.14.86s0,.4-.06.6a4.9,4.9,0,0,0-.05.81c0,.19,0,.37,0,.56s0,.32,0,.48,0,.48.07.72,0,.46.07.69,0,.16,0,.25l.08.51a1,1,0,0,1,0,.16c0,.08-.05.09-.11.07l-.17-1.4-.31,0-.47,0c-.07,0-.14,0-.21.06a.1.1,0,0,1-.08,0,.07.07,0,0,1,0-.07s.06-.07.1-.08l.45,0H8l.22,0c0-.28-.08-.55-.1-.82s0-.55,0-.83l-.15,0a.63.63,0,0,0-.34,0l-.33.09a.06.06,0,0,1-.08-.07.09.09,0,0,1,.1-.09,1.78,1.78,0,0,1,.64,0c.09,0,.13,0,.13-.12a1.2,1.2,0,0,1,0-.16c0-.26.05-.51.08-.77s0-.25,0-.4l-.83.07c0,.16,0,.34-.08.51s-.1.51-.13.77c-.05.44-.08.89-.13,1.33A13.62,13.62,0,0,0,7,34.85c0,.19,0,.38,0,.58s0,.12-.13.1c0-.19,0-.38,0-.57s0-.23,0-.34,0-.39,0-.59c0-.46.11-.91.14-1.37a14.79,14.79,0,0,1,.26-1.71c0-.08,0-.16,0-.26a.21.21,0,0,0,0-.07c.05-.16.1-.32.15-.48A8.25,8.25,0,0,1,7.79,29c.13-.33.25-.66.37-1,0-.1.06-.21.11-.3s.12-.24.18-.36c.14-.32.26-.65.41-1a7,7,0,0,1,.54-1,1.24,1.24,0,0,0,.07-.13l-.32.07c-.09,0-.12,0-.1-.1a.47.47,0,0,1,0-.09,1.15,1.15,0,0,0,.08-.3L8.9,25a6.4,6.4,0,0,0-1,.5c-.06,0-.1,0-.11-.05a.44.44,0,0,1,0-.1l.06-.41-.35.25c-.1.07-.18.17-.28.23a4.06,4.06,0,0,0-.76.68s-.07.11-.13.07,0-.09,0-.14,0-.06,0-.09,0-.19,0-.32l-.12.11a2.83,2.83,0,0,0-.64.77c-.07.13-.15.26-.23.38a.12.12,0,0,1-.09,0s0-.05-.06-.09a.32.32,0,0,1,0-.1l0-.42h0l-.07.13-.2.48c0,.08-.07.16-.1.25s0,.1-.1.09-.06-.07-.06-.12,0-.24,0-.36a2,2,0,0,1,.13-.92,4.81,4.81,0,0,1,.28-.47A4.42,4.42,0,0,1,6,24.3,2.39,2.39,0,0,1,6.38,24a3.38,3.38,0,0,1,.48-.19,1.39,1.39,0,0,1,.66-.12,1.41,1.41,0,0,0,.22,0l-.21-.18-.34-.23a.11.11,0,0,1-.05-.15c0-.06.08,0,.14,0l.22,0v0L7.41,23l-.63-.34L6,22.29a.28.28,0,0,1-.1-.08A.09.09,0,0,1,6,22.06a2.22,2.22,0,0,1,.65.05h.08l-.83-.47-.56-.33c-.05,0-.1-.08-.07-.15s.09-.07.15-.06l.5,0H6v0a3.1,3.1,0,0,0-.71-.46,4.25,4.25,0,0,1-.46-.27.1.1,0,0,1,0-.14c0-.06.08,0,.13,0H5a1,1,0,0,1,.39.08l.31.13.84.27a2.25,2.25,0,0,1,.6.28c.19.13.38.27.58.39a1.56,1.56,0,0,1,.32.29,2,2,0,0,0,.24.24,1,1,0,0,1,.29.33l.05.07c.13.16.32.28.39.49,0,0,.06.08.09.12s.14.21.19.31l.32.65a1.2,1.2,0,0,0,.1.15l0,0a.36.36,0,0,0,0-.06c-.06-.12-.12-.24-.17-.36a1,1,0,0,1-.06-.27.17.17,0,0,1,.07-.12s.09,0,.13,0l.12.1c-.06-.16-.09-.29-.15-.41-.13-.27-.28-.54-.41-.81a1.1,1.1,0,0,1-.09-.26.13.13,0,0,1,.06-.1.12.12,0,0,1,.11,0l.26.19.1,0a1.48,1.48,0,0,0-.08-.26,11.65,11.65,0,0,0-.71-1.23c-.06-.09-.13-.17-.18-.25a.32.32,0,0,1,0-.15A.14.14,0,0,1,8.74,20s.07,0,.1,0a.54.54,0,0,0,.26.17.51.51,0,0,0,0-.07l-.24-.62a.42.42,0,0,1,0-.12.12.12,0,0,1,0-.1.11.11,0,0,1,.1,0,1.77,1.77,0,0,1,.15.18,2.06,2.06,0,0,0,.19.24,1.16,1.16,0,0,1,.23.32l.2.38.09.17a1,1,0,0,0,.08.17,1.2,1.2,0,0,1,.24.56,2.11,2.11,0,0,0,.14.47,2.42,2.42,0,0,1,.13.63,7.65,7.65,0,0,1,0,1.14,2.91,2.91,0,0,1,0,.31,3.31,3.31,0,0,0,.19-.4,8,8,0,0,1,.43-1,12.68,12.68,0,0,1,.7-1.21c.13-.17.25-.34.39-.51a3.93,3.93,0,0,1,.65-.61,2.34,2.34,0,0,1,.29-.21,2.63,2.63,0,0,1,.75-.23l.24,0s.09,0,.11.05,0,.08-.06.11l-.09.07-.66.68-.34.33c.15.14.35.08.53.14-.08.12-.2.13-.3.19l-.28.19-.3.19a1.91,1.91,0,0,0-.27.21c-.08.08-.19.11-.26.23h.16l.46-.06a.17.17,0,0,1,.18,0,20.35,20.35,0,0,0-1.55,1.38c.19.07.35-.09.54,0a2.73,2.73,0,0,1-.43.4c-.15.13-.31.24-.47.37l-.44.35a.28.28,0,0,0,.12,0l.41-.17.24-.07c.26-.06.53-.14.79-.19s.71-.08,1.06-.11a3.57,3.57,0,0,1,1,.07,6.1,6.1,0,0,1,.73.28l0,0,.29.17a4.24,4.24,0,0,1,.75.52,2.05,2.05,0,0,1,.28.26,2.26,2.26,0,0,1,.44.81c0,.16.1.31.16.46s0,.1,0,.15-.09,0-.13,0l-.63-.56-.13-.08a1,1,0,0,0,0,.45c0,.07,0,.13,0,.17s-.1,0-.14-.06a6.55,6.55,0,0,0-.58-.5c-.13-.09-.25-.21-.38-.31a1.82,1.82,0,0,0-.44-.22,1.28,1.28,0,0,0,0,.29c0,.09.06.18.1.26a.09.09,0,0,1,0,.12.12.12,0,0,1-.1,0c-.05,0-.1-.11-.15-.16l-.67-.6-.13-.08,0,0c0,.08,0,.15.05.23s0,.24.05.37a.14.14,0,0,1,0,.11s-.08,0-.11,0l-.06,0L13,25.8a5.3,5.3,0,0,0-.41-.35.82.82,0,0,0-.33-.17,1.49,1.49,0,0,0,.08.18c0,.05,0,.1,0,.15s-.09,0-.14,0l-.19-.11a2.57,2.57,0,0,0-.28-.21A3.38,3.38,0,0,0,11.2,25c-.26-.08-.53-.11-.8-.17l0,0,.22.05a3.34,3.34,0,0,1,1,.32,4.57,4.57,0,0,1,.74.49c.25.2.49.42.73.63l.06.06a5.51,5.51,0,0,1,.65,1,3.4,3.4,0,0,1,.27,1,6.41,6.41,0,0,1,.07.77,3.19,3.19,0,0,1,0,.49s0,.07-.05.08a.19.19,0,0,1-.1,0s0,0,0,0l-.3-.47L13.37,29l-.17.5s0,.11-.08.12-.08-.07-.1-.11v0c0-.17-.08-.34-.13-.5l-.19-.69a1.31,1.31,0,0,0-.07-.15l-.16.45c0,.06-.08.08-.12,0a.63.63,0,0,1-.08-.17c-.08-.24-.15-.49-.25-.73a3,3,0,0,1-.24-.74.47.47,0,0,0-.06-.11c-.06.16-.1.29-.16.41s-.05.09-.08.09a.14.14,0,0,1-.1-.07c0-.09-.08-.19-.12-.29a1.18,1.18,0,0,0-.12-.27.89.89,0,0,1-.18-.52.73.73,0,0,0,0-.11,1,1,0,0,0-.1.19s-.05.08-.09.09-.08,0-.09-.07-.1-.23-.15-.35l-.18-.47m6.29.94a1.73,1.73,0,0,0-.35-.87,2.88,2.88,0,0,0-1-.78l-.69-.38a1.58,1.58,0,0,0-.61-.2c-.17,0-.33-.05-.5-.06a3.58,3.58,0,0,0-.43,0c-.32,0-.64,0-1,.09a4.42,4.42,0,0,0-.8.19l-.6.21-.06,0c.19.06.37.1.54.17s.33.17.51.24.29.23.5.28a.89.89,0,0,0,0-.1l-.1-.17c-.05-.11,0-.13.08-.19l.38.33c.14.12.29.22.42.34a2,2,0,0,1,.28.25.78.78,0,0,0,.19.12.69.69,0,0,0,0-.1,1.49,1.49,0,0,0-.18-.57.21.21,0,0,1,0-.14.07.07,0,0,1,.14,0,3.57,3.57,0,0,0,.71.64l.22.19.06,0a1.51,1.51,0,0,0-.11-.41l0-.1a.11.11,0,0,1,.05-.14s.08,0,.12,0l.11,0a.78.78,0,0,1,.25.17,5,5,0,0,0,.42.37l.45.37.24.18,0-.18c0-.11,0-.23,0-.34s.07-.17.19-.09a.39.39,0,0,1,.1.09,4,4,0,0,0,.5.43m-3.48,2.86.14-.39a.58.58,0,0,1,0-.08c0-.08.09-.08.14,0s.09.17.15.26l.18.25.15.21c0-.11,0-.19,0-.27a4.6,4.6,0,0,0-.24-1.5,3.25,3.25,0,0,0-.88-1.37,6.46,6.46,0,0,0-1-.81,3.85,3.85,0,0,0-1.22-.48L10.31,25a1.71,1.71,0,0,0,.17.57c.05.18.13.35.2.53h0l.09-.28a.47.47,0,0,1,0-.11s.06-.06.09-.06.06,0,.06.08c0,.22.06.44.1.65a.55.55,0,0,0,.1.21,3.46,3.46,0,0,1,.19.4.23.23,0,0,0,.07.1L11.5,27c.05-.12.1-.24.16-.35s.06,0,.09-.06a.32.32,0,0,1,.06.09c0,.16.08.32.1.49a2.38,2.38,0,0,0,.17.47c.07.19.15.38.22.57a1.13,1.13,0,0,0,.08.22l.11-.34a1.53,1.53,0,0,1,.06-.17s0-.06.06-.05a.11.11,0,0,1,.07.06c.06.18.13.35.18.53s.12.48.19.72a1.34,1.34,0,0,0,.07.16m-8-8.85.1.07.51.28a1.31,1.31,0,0,1,.15.12l.25.19,0,0s.1.08.07.15-.09,0-.14,0l-.58,0s0,.08.07.09l.37.21.05,0,.81.43.16.08.1,0a.09.09,0,0,1,.05.12.08.08,0,0,1-.12,0,2.44,2.44,0,0,0-.76-.09l-.09,0,.19.12.32.14a6.88,6.88,0,0,1,.76.45c.21.11.4.25.61.37l.05,0s.06.08,0,.13a.09.09,0,0,1-.13,0l-.17-.09c-.14-.1-.18-.08-.33-.09,0,.06.06.09.1.12s.18.13.26.2a2.07,2.07,0,0,0,.6.28l.76.37c.14.08.28.17.42.25l.22.16,0,0-.06-.13-.57-1.09-.06-.14a2.24,2.24,0,0,0-.3-.49c-.21-.25-.39-.51-.6-.75a2.86,2.86,0,0,0-.62-.58c-.13-.07-.23-.19-.35-.27a2.92,2.92,0,0,0-.72-.36,9.23,9.23,0,0,1-1.15-.42,1.16,1.16,0,0,0-.28-.06l0,0m.2,6.14c0-.06.09-.12.13-.19A3,3,0,0,1,6,25.79c.14-.14.27-.3.41-.45s.07-.11.17-.08c0,.2-.12.38-.09.59l0,0c.23-.19.47-.37.7-.57a3.27,3.27,0,0,1,.46-.37,1.41,1.41,0,0,0,.19-.17.44.44,0,0,1,.09-.07.09.09,0,0,1,.08,0,.09.09,0,0,1,0,.08c0,.1-.06.2-.08.3s0,.16,0,.27l.42-.18a7.78,7.78,0,0,0,.86-.4.45.45,0,0,1,.14,0c0,.18-.16.31-.14.5.14,0,.26-.08.39-.1L10,25l-.07-.08a6.15,6.15,0,0,0-1.22-.76L8.37,24H8.31c-.08.05-.13,0-.19,0a.7.7,0,0,0-.28-.1A2.21,2.21,0,0,0,6.73,24a2.48,2.48,0,0,0-.85.55A5.63,5.63,0,0,0,5,25.76a1.22,1.22,0,0,0-.17.75,2.6,2.6,0,0,1,0,.31h0a1.5,1.5,0,0,0,.11-.23A1.89,1.89,0,0,1,5.21,26l0,0s.07-.09.12-.06,0,.08,0,.13,0,.33-.07.49h0m5-2a8.34,8.34,0,0,0,1.25-1c-.16,0-.32.05-.48,0a.17.17,0,0,1,.07-.14c.44-.44.91-.84,1.38-1.24l.06-.08-.24,0-.46,0s-.06,0-.08,0,0-.07,0-.08l.88-.63.43-.31L12.75,21a7.57,7.57,0,0,1,.58-.6c.17-.2.35-.39.55-.61a1.09,1.09,0,0,0-.2,0,2.28,2.28,0,0,0-.58.2,3.7,3.7,0,0,0-.93.79c-.14.16-.26.35-.39.52a6,6,0,0,0-.56,1c-.12.23-.22.46-.32.7s-.09.26-.14.39l-.26.71c0,.13-.08.27-.13.43M9,20.33a.56.56,0,0,0,0,.1l.26.4.18.29.34.61a.76.76,0,0,1,0,.11l.12.35s0,0,0,.05a.19.19,0,0,1,0,.11s-.08,0-.12,0l-.3-.27L9.39,22a.62.62,0,0,0,.12.37,5.79,5.79,0,0,1,.4.83c.06.13.1.28.15.41s0,.11,0,.14-.1,0-.14-.06a2.39,2.39,0,0,0-.22-.25.6.6,0,0,0,.07.36l.28.56c0,.1.08.2.12.31a.37.37,0,0,0,.08-.26c0-.15,0-.3,0-.44a4.19,4.19,0,0,0,0-.93,6.84,6.84,0,0,0-.15-1.11c0-.08-.05-.15-.07-.22s-.09-.34-.15-.51a1.5,1.5,0,0,0-.11-.23c-.14-.27-.28-.55-.43-.81a4.52,4.52,0,0,0-.29-.4h0a.32.32,0,0,0,0,.08l.18.48s0,0,0,.07a.18.18,0,0,1,0,.1s-.08,0-.12,0L9,20.34H9M7.41,30.65h.69c.07,0,.1,0,.11-.09s0-.19,0-.28l.14-.79.08-.42H8.3L8,29.1c-.08,0-.14,0-.16.12s-.05.18-.08.27l-.27,1,0,.19m2.83-5.31-.09-.23-.41.08c-.06,0-.1,0-.13.08a.29.29,0,0,1-.06.08,6.85,6.85,0,0,0-.48.75,3.06,3.06,0,0,0-.17.33c0,.09,0,.13.07.15a2.45,2.45,0,0,0,.35,0s0,0,.05,0l.3-.51c0-.09,0-.11-.06-.13l-.13,0s-.09,0-.07-.09a.08.08,0,0,1,.11-.06l.14,0a.17.17,0,0,0,.23-.08,2.43,2.43,0,0,1,.22-.28l.11-.1M8.31,27.89,7.92,29l.19,0h.32a.08.08,0,0,0,.09-.06l.3-1a.58.58,0,0,0-.24,0H8.31m.54-.09.43-1-.47-.06-.43,1c.06.08.11.08.46.08m1-3.52-.07-.14,0,0,.06.14,0,0"/><path class="cls-10" d="M35.1,21a16.09,16.09,0,0,0-.52,2.72c0,.47-.21,1.36.16,1.75l0,0c0,.08,0,.16,0,.24s.18.21.29.12a.21.21,0,0,0,.18,0c0,.08,0,.17,0,.25s.23.22.32.11a.8.8,0,0,0,.21.42.17.17,0,0,0,.23,0,.18.18,0,0,0,.28-.19c-.1-.38-.09-.77-.17-1.16s-.21-.82-.26-1.25A11.35,11.35,0,0,1,36,21.54a12.88,12.88,0,0,1,.52-2.78,11.52,11.52,0,0,1,1.34-2.54.18.18,0,0,0-.18-.26h0c.09-.21-.21-.39-.31-.18L37,16.4c-.34.13-.6.93-.74,1.4L36.2,18l-.26.49A10.79,10.79,0,0,0,35.1,21m.54-.39a6.73,6.73,0,0,1,.17-.67q-.07.34-.11.69l-.06,0"/><path class="cls-12" d="M38.15,15.92c.42-.2,1.15.43,1.42.63A4.67,4.67,0,0,1,41,18.08a3.63,3.63,0,0,1,.39,1c.07.34,0,.69.15,1a.18.18,0,0,1-.26.2h0a1.27,1.27,0,0,0-.2-.35.12.12,0,0,0-.11,0h0v0a.17.17,0,0,0-.1.07.77.77,0,0,0-.09.21.17.17,0,0,1-.18-.13,5.09,5.09,0,0,0-.28-1.19l0,.11a.15.15,0,0,0-.24.14s0,.08,0,.11l0,0a3.8,3.8,0,0,1-.38-1,1.92,1.92,0,0,0-.41-.84,1.64,1.64,0,0,1,0,.44h0s0,0,0,0c0,.22-.33.15-.35,0a2.28,2.28,0,0,0-.47-1.17s0,.09,0,.14c0,.22-.29.33-.34.1s-.27-.79.09-1"/><path class="cls-12" d="M41.3,19.76a.18.18,0,0,1,.22.12,3.22,3.22,0,0,0,.1.35.18.18,0,0,1-.34.1,3.28,3.28,0,0,1-.1-.35.18.18,0,0,1,.12-.22"/><path class="cls-12" d="M40,18.08a.18.18,0,0,1,.25.06l.36.79a.19.19,0,0,1-.06.25.18.18,0,0,1-.25-.06l-.36-.79a.19.19,0,0,1,.06-.25"/><path class="cls-12" d="M38.76,16.45a1.61,1.61,0,0,0,.16.81,3.68,3.68,0,0,0,.27-.27.18.18,0,0,1,.25,0,.18.18,0,0,1,0,.25l-.07.08a.16.16,0,0,1,.24.11,4.66,4.66,0,0,0,.3,1,1.37,1.37,0,0,1,.19.77c0,.23-.38.14-.35-.09s-.19-.56-.29-.8a4.27,4.27,0,0,1-.19-.78.18.18,0,0,1,0-.12l-.11.11a.18.18,0,0,1-.22,0c-.07.11-.23.15-.29,0a2.12,2.12,0,0,1-.26-1.09c0-.23.38-.24.36,0"/><path class="cls-12" d="M32.77,11.07c-.23,0-.31.32-.09.35l.23.06a.15.15,0,0,0,.06.09c.19.15.38.29.56.45l-.35-.07c-.19,0-.32.24-.13.33a8.59,8.59,0,0,1,1.09.53l.21.14-.54,0c-.21,0-.22.3,0,.35a4.6,4.6,0,0,1,.92.4.18.18,0,0,0,0,.09,1.32,1.32,0,0,0,.38.26c-.17,0-.21.26-.07.33a2.46,2.46,0,0,0,.44.18l.17.12c.15.1.3.19.46.27l-.3-.08a1.91,1.91,0,0,0-.51-.12,2.18,2.18,0,0,0-.8.07h-.05c-.49.18-1.44.5-1.53,1.12,0,0,0,0,0,0l-.15.19-.12.19a.17.17,0,0,0-.12,0,1.15,1.15,0,0,0-.28.62.16.16,0,0,0,.07.18l-.09.34h0v0a.18.18,0,0,0,.35.09,4.73,4.73,0,0,1,.28-.81h0l-.12.38c-.07.22.28.31.35.09l0,0a.19.19,0,0,0,0-.06l0-.07,0,0c.24-.23.44-.49.66-.72l.11-.1a2.81,2.81,0,0,1-.16.32.18.18,0,0,0,.31.18l.13-.24a.17.17,0,0,0,.16,0,7.63,7.63,0,0,1,.73-.57l.33-.22a.51.51,0,0,1-.08.16c-.12.15,0,.4.22.28a4.24,4.24,0,0,1,.57-.25c.17-.08.32-.22.51-.21h0a1.91,1.91,0,0,1-.06.24c-.06.15.15.26.27.2a1,1,0,0,1,.38-.05l.42-.05.05,0h0l0,0,.06.07a.18.18,0,1,0,.25-.26.88.88,0,0,0-.19-.17l0,0a.2.2,0,0,0,0,0s0,0,0,0a1.88,1.88,0,0,1,.17-.16h0c0,.13.06.31.21.24l.11,0,.06,0c.12,0,.23.1.35.13l.12.09a1.4,1.4,0,0,0,.4.18l.15.09a.59.59,0,0,0,.07.15.43.43,0,0,0,.45-.23,2.61,2.61,0,0,1,.26.22c.17.17.3.36.48.51a.18.18,0,0,0,.3-.09,1.11,1.11,0,0,0,0-.39.22.22,0,0,0,0-.06l0-.08v0a5.9,5.9,0,0,1,.48.5.16.16,0,0,0,.09.06l0,.12c.07.22.42.12.34-.1s-.1-.26-.15-.4a3.35,3.35,0,0,1,.56.31,9.62,9.62,0,0,1,.86.77.18.18,0,0,0,.3-.09,2.2,2.2,0,0,0,0-.42l.21.14h0l.08.15c.11.21.41,0,.31-.18a3.71,3.71,0,0,0-1.88-1.75,1,1,0,0,0-.64-.24l-.22,0-.25-.11a.14.14,0,0,0-.17,0l-.16,0a.17.17,0,0,0-.15,0,6,6,0,0,0-2.41.31l-.08,0,0,0a1.41,1.41,0,0,0,.2-.19c.11-.13.19-.32.35-.4h0a.47.47,0,0,1,.15-.05c.23,0,.22-.39,0-.36a.81.81,0,0,0-.21.06l.07-.12a.18.18,0,0,0,.29,0,2.71,2.71,0,0,1,.26-.28l.24-.28c.13-.14.25-.34.44-.39a.18.18,0,0,0-.1-.34.7.7,0,0,0-.21.1.13.13,0,0,0-.09,0l.2-.19a2.66,2.66,0,0,1,.62-.57l0,0,.1,0a.18.18,0,0,0-.1-.34l-.12,0-.08,0,.24-.28c.14-.16.27-.33.42-.49s.22-.27.31-.28.22-.39,0-.36a.66.66,0,0,0-.3.14.19.19,0,0,0-.19,0,8,8,0,0,0-.69.62.16.16,0,0,0-.13.06,3.13,3.13,0,0,0-.32.41l-.09.09a3.39,3.39,0,0,0-.44.61,3.78,3.78,0,0,0-.62,1,.15.15,0,0,0,0,.13l0,.07h0l0,0a.15.15,0,0,0,0,.11c-.16.39-.38.75-.56,1.13,0-.5,0-1,0-1.5a1.07,1.07,0,0,0-.07-.56,5.83,5.83,0,0,0-.38-1.15,6,6,0,0,1-.54-1.14c0-.23-.39-.12-.34.1a1.35,1.35,0,0,0,.11.32c-.15-.07-.35.09-.24.24a4.1,4.1,0,0,1,.51.73,4.84,4.84,0,0,0,.27.52,1.77,1.77,0,0,1,.25.51v.06a1.87,1.87,0,0,0-.3-.26.18.18,0,0,0-.25.26,6.37,6.37,0,0,1,.56,1.11h0a.18.18,0,0,0-.27.16,2.5,2.5,0,0,0,.16.57l0,0,0,0v0a.89.89,0,0,0-.08-.15.17.17,0,0,0,0-.15,7.41,7.41,0,0,0-2-2.45,10.81,10.81,0,0,0-1.34-.71,3.29,3.29,0,0,0-1-.46m3.85,4.07L36.35,15l.05,0,.21.14"/><path class="cls-5" d="M37.84,16.36a.69.69,0,0,0-.12.1c-.17.24-.36.47-.51.72a4.94,4.94,0,0,0-.49.95l-.31.85c-.06.18-.12.36-.18.55a1.14,1.14,0,0,0,0,.14c0,.25-.09.5-.14.74,0,.08-.06.15-.07.22-.05.29-.1.57-.14.86s0,.4-.06.6a4.9,4.9,0,0,0-.05.81c0,.19,0,.37,0,.56s0,.32,0,.48,0,.48.07.72,0,.46.07.69,0,.16,0,.25l.08.51a1,1,0,0,1,0,.16c0,.08-.05.09-.11.07l-.17-1.4-.31,0-.47,0c-.07,0-.14,0-.21.06a.1.1,0,0,1-.08,0,.07.07,0,0,1,0-.07s.06-.07.1-.08l.45,0h.3l.22,0c0-.28-.08-.55-.1-.82s0-.55,0-.83l-.15,0a.63.63,0,0,0-.34,0l-.33.09a.06.06,0,0,1-.08-.07.09.09,0,0,1,.1-.09,1.78,1.78,0,0,1,.64,0c.09,0,.13,0,.13-.12a1.2,1.2,0,0,1,0-.16c0-.26.05-.51.08-.77s0-.25,0-.4l-.83.07c0,.16,0,.34-.08.51s-.1.51-.13.77c-.05.44-.08.89-.13,1.33a13.62,13.62,0,0,0-.07,1.42c0,.19,0,.38,0,.58s0,.12-.13.1c0-.19,0-.38,0-.57s0-.23,0-.34,0-.39,0-.59c0-.46.11-.91.14-1.37a14.79,14.79,0,0,1,.26-1.71c0-.08,0-.16,0-.26a.21.21,0,0,0,0-.07c.05-.16.1-.32.15-.48a8.25,8.25,0,0,1,.3-1.09c.13-.33.25-.66.37-1,0-.1.06-.21.11-.3s.12-.24.18-.36c.14-.32.26-.65.41-1a7,7,0,0,1,.54-1,1.24,1.24,0,0,0,.07-.13l-.32.07c-.09,0-.12,0-.1-.1a.47.47,0,0,1,0-.09,1.15,1.15,0,0,0,.08-.3l-.25.12a6.4,6.4,0,0,0-1,.5c-.06,0-.1,0-.11-.05a.44.44,0,0,1,0-.1l.06-.41L35,16c-.1.07-.18.17-.28.23A4.06,4.06,0,0,0,34,17s-.07.11-.13.07,0-.09,0-.14,0-.06,0-.09,0-.19,0-.32l-.12.11a2.83,2.83,0,0,0-.64.77c-.07.13-.15.26-.23.38a.12.12,0,0,1-.09,0s0-.05-.06-.09a.32.32,0,0,1,0-.1l0-.42h0l-.07.13-.2.48c0,.08-.07.16-.1.25s0,.1-.1.09-.06-.07-.06-.12,0-.24,0-.36a2,2,0,0,1,.13-.92,4.81,4.81,0,0,1,.28-.47,4.42,4.42,0,0,1,.92-1.08,2.4,2.4,0,0,1,.39-.26,3.38,3.38,0,0,1,.48-.19,1.39,1.39,0,0,1,.66-.12,1.41,1.41,0,0,0,.22,0l-.21-.18-.34-.23a.11.11,0,0,1-.05-.15c0-.06.08,0,.14,0L35,14v0l-.1-.08-.63-.34-.82-.42a.28.28,0,0,1-.1-.08.09.09,0,0,1,.08-.15,2.22,2.22,0,0,1,.65.05h.08l-.83-.47-.56-.33c-.05,0-.1-.08-.07-.15s.09-.07.15-.06l.5,0h.09v0a3.1,3.1,0,0,0-.71-.46,4.25,4.25,0,0,1-.46-.27.1.1,0,0,1,0-.14c0-.06.08,0,.13,0h.12a1,1,0,0,1,.39.08l.31.13.84.27a2.25,2.25,0,0,1,.6.28c.19.13.38.27.58.39a1.56,1.56,0,0,1,.32.29,2,2,0,0,0,.24.24,1,1,0,0,1,.29.33l.05.07c.13.16.32.28.39.49,0,0,.06.08.09.12s.14.21.19.31l.32.65a1.2,1.2,0,0,0,.1.15l0,0a.37.37,0,0,0,0-.06c-.06-.12-.12-.24-.17-.36a1,1,0,0,1-.06-.27.17.17,0,0,1,.07-.12s.09,0,.13,0l.12.1c-.06-.16-.09-.29-.15-.41-.13-.27-.28-.54-.41-.81a1.1,1.1,0,0,1-.09-.26.13.13,0,0,1,.06-.1.12.12,0,0,1,.11,0l.26.19.1,0a1.48,1.48,0,0,0-.08-.26,11.65,11.65,0,0,0-.71-1.23c-.06-.08-.13-.17-.18-.25a.32.32,0,0,1,0-.15.14.14,0,0,1,.06-.09s.07,0,.1,0a.54.54,0,0,0,.26.17.51.51,0,0,0,0-.07l-.24-.62a.42.42,0,0,1,0-.12.12.12,0,0,1,0-.1.11.11,0,0,1,.1,0,1.8,1.8,0,0,1,.15.18,2,2,0,0,0,.19.24,1.16,1.16,0,0,1,.23.32l.2.38.09.17a1,1,0,0,0,.08.17,1.2,1.2,0,0,1,.24.56,2.11,2.11,0,0,0,.14.47,2.42,2.42,0,0,1,.13.63,7.65,7.65,0,0,1,0,1.14,2.91,2.91,0,0,1,0,.31,3.31,3.31,0,0,0,.19-.4,7.94,7.94,0,0,1,.43-1,12.68,12.68,0,0,1,.7-1.21c.13-.17.25-.34.39-.51a3.93,3.93,0,0,1,.65-.61,2.34,2.34,0,0,1,.29-.21,2.63,2.63,0,0,1,.75-.23l.24,0s.09,0,.11.05,0,.08-.06.11l-.09.07-.66.68-.34.33c.15.14.35.08.53.14-.08.12-.2.13-.3.19l-.28.19-.3.19a1.91,1.91,0,0,0-.27.21c-.08.08-.19.11-.26.23h.16l.46-.06a.17.17,0,0,1,.18,0,20.35,20.35,0,0,0-1.55,1.38c.19.07.35-.09.54,0a2.73,2.73,0,0,1-.43.4c-.15.13-.31.24-.47.37l-.44.35a.28.28,0,0,0,.12,0l.41-.17.24-.07c.26-.06.53-.14.79-.19s.71-.08,1.06-.11a3.57,3.57,0,0,1,1,.07,6.1,6.1,0,0,1,.73.28l0,0,.29.17a4.23,4.23,0,0,1,.75.52,2.05,2.05,0,0,1,.28.26,2.26,2.26,0,0,1,.44.81c0,.16.1.31.16.46s0,.1,0,.15-.09,0-.13,0L43.62,17,43.49,17a1,1,0,0,0,0,.45c0,.07,0,.13,0,.17s-.1,0-.14-.06a6.55,6.55,0,0,0-.58-.5c-.13-.09-.25-.21-.38-.31A1.82,1.82,0,0,0,42,16.5a1.29,1.29,0,0,0,0,.29c0,.09.06.18.1.26a.09.09,0,0,1,0,.12.12.12,0,0,1-.1,0c-.05,0-.1-.11-.15-.16l-.67-.6L41,16.3l0,0c0,.08,0,.15.05.23s0,.24.05.37A.14.14,0,0,1,41,17s-.08,0-.11,0l-.06,0-.29-.27a5.3,5.3,0,0,0-.41-.35.82.82,0,0,0-.33-.17,1.49,1.49,0,0,0,.08.18c0,.05,0,.1,0,.15s-.09,0-.14,0l-.19-.11a2.57,2.57,0,0,0-.28-.21,3.38,3.38,0,0,0-.58-.25c-.26-.08-.53-.11-.8-.17l0,0,.22.05a3.34,3.34,0,0,1,1,.32,4.57,4.57,0,0,1,.74.49c.25.2.49.42.73.63l.06.06a5.5,5.5,0,0,1,.65,1,3.4,3.4,0,0,1,.27,1,6.42,6.42,0,0,1,.07.77,3.19,3.19,0,0,1,0,.49s0,.07-.05.08a.19.19,0,0,1-.1,0s0,0,0,0l-.3-.47-.16-.22-.17.5s0,.11-.08.12-.08-.07-.1-.11v0c0-.17-.08-.34-.13-.5l-.19-.69a1.3,1.3,0,0,0-.07-.15l-.16.45c0,.07-.08.08-.12,0a.63.63,0,0,1-.08-.17c-.08-.24-.15-.49-.25-.73a3,3,0,0,1-.24-.74.47.47,0,0,0-.06-.11c-.06.16-.1.29-.16.41s-.05.09-.08.09a.14.14,0,0,1-.1-.07c0-.09-.08-.19-.12-.29a1.17,1.17,0,0,0-.12-.27.89.89,0,0,1-.18-.52.73.73,0,0,0,0-.11,1,1,0,0,0-.1.19s-.05.08-.09.09-.08,0-.09-.07-.1-.23-.15-.35l-.18-.47m6.29.94a1.73,1.73,0,0,0-.35-.87,2.88,2.88,0,0,0-1-.78l-.69-.38a1.58,1.58,0,0,0-.61-.2c-.17,0-.33-.05-.5-.06a3.58,3.58,0,0,0-.43,0c-.32,0-.64,0-1,.09a4.42,4.42,0,0,0-.8.19l-.6.21-.06,0c.19.06.37.1.54.17s.33.17.51.24.29.23.5.28a.89.89,0,0,0,0-.1L39.6,16c-.05-.11,0-.13.08-.19l.38.33c.14.12.29.22.42.34a2,2,0,0,1,.28.25.77.77,0,0,0,.19.12.69.69,0,0,0,0-.1,1.49,1.49,0,0,0-.18-.57.21.21,0,0,1,0-.14.07.07,0,0,1,.14,0,3.57,3.57,0,0,0,.71.64l.22.19.06,0a1.51,1.51,0,0,0-.11-.41l0-.1a.11.11,0,0,1,.05-.14s.08,0,.12,0l.11,0a.78.78,0,0,1,.25.17,5,5,0,0,0,.42.37l.45.37.24.18,0-.18c0-.11,0-.23,0-.34s.07-.17.19-.09a.39.39,0,0,1,.1.09,4,4,0,0,0,.5.43m-3.48,2.86.14-.39a.58.58,0,0,1,0-.08c0-.08.09-.08.14,0s.09.17.15.26l.18.25.15.21c0-.11,0-.19,0-.27a4.6,4.6,0,0,0-.24-1.5,3.25,3.25,0,0,0-.88-1.37,6.46,6.46,0,0,0-1-.81A3.85,3.85,0,0,0,38.11,16l-.26-.06a1.71,1.71,0,0,0,.17.57c.05.18.13.35.2.53h0l.09-.28a.47.47,0,0,1,0-.11s.06-.06.09-.06.06,0,.06.08c0,.22.06.44.1.65a.55.55,0,0,0,.1.21,3.46,3.46,0,0,1,.19.4A.23.23,0,0,0,39,18l.06-.14c.05-.12.1-.24.16-.35s.06,0,.09-.06a.32.32,0,0,1,.06.09c0,.16.08.32.1.49a2.38,2.38,0,0,0,.17.47c.07.19.15.38.22.57a1.13,1.13,0,0,0,.08.22l.11-.34a1.53,1.53,0,0,1,.06-.17s0-.06.06-.05a.11.11,0,0,1,.07.06c.06.18.13.35.18.53s.12.48.19.72a1.33,1.33,0,0,0,.07.16m-8-8.85.1.07.51.28a1.33,1.33,0,0,1,.15.12l.25.19,0,0s.1.08.07.15-.09,0-.14,0l-.58,0s0,.08.07.09l.37.21.05,0,.81.43.16.08.1,0a.09.09,0,0,1,.05.12.08.08,0,0,1-.12,0,2.44,2.44,0,0,0-.76-.09l-.09,0,.19.12.32.14a6.88,6.88,0,0,1,.76.45c.21.11.4.25.61.37l.05,0s.06.08,0,.13a.09.09,0,0,1-.13,0l-.17-.09c-.14-.1-.18-.08-.33-.09,0,.06.06.09.1.12s.18.13.26.2a2.07,2.07,0,0,0,.6.28l.76.37c.14.08.28.17.42.25l.22.16,0,0-.06-.13-.57-1.09-.06-.14a2.25,2.25,0,0,0-.3-.49c-.21-.25-.39-.51-.6-.75a2.86,2.86,0,0,0-.62-.58c-.13-.07-.23-.19-.35-.27a2.92,2.92,0,0,0-.72-.36A9.23,9.23,0,0,1,33,11.33a1.16,1.16,0,0,0-.28-.06l0,0m.2,6.14c0-.06.09-.12.13-.19a3,3,0,0,1,.49-.61c.14-.14.27-.3.41-.45s.07-.11.17-.08c0,.2-.12.38-.09.59l0,0c.23-.19.47-.37.7-.57a3.27,3.27,0,0,1,.46-.37,1.41,1.41,0,0,0,.19-.17.44.44,0,0,1,.09-.07.06.06,0,0,1,.1.08c0,.1-.06.2-.08.3s0,.16,0,.27l.42-.18a7.78,7.78,0,0,0,.86-.4.45.45,0,0,1,.14,0c0,.18-.16.31-.14.5.14,0,.26-.08.39-.1l.43-.07-.07-.08A6.16,6.16,0,0,0,36.27,15l-.36-.14h-.06c-.08.05-.13,0-.19,0a.71.71,0,0,0-.28-.1,2.21,2.21,0,0,0-1.12.13,2.49,2.49,0,0,0-.85.55,5.63,5.63,0,0,0-.91,1.18,1.22,1.22,0,0,0-.17.75,2.61,2.61,0,0,1,0,.31h0a1.5,1.5,0,0,0,.11-.23,1.89,1.89,0,0,1,.28-.55l0,0s.07-.09.12-.06,0,.08,0,.13,0,.33-.07.49h0m5-2a8.33,8.33,0,0,0,1.25-1c-.16,0-.32.05-.48,0a.17.17,0,0,1,.07-.14c.44-.44.91-.84,1.38-1.24l.06-.08-.24,0-.46,0s-.06,0-.08,0,0-.07,0-.08l.88-.63.43-.31-.46-.09a7.58,7.58,0,0,1,.58-.6c.17-.2.35-.39.55-.61a1.09,1.09,0,0,0-.2,0,2.28,2.28,0,0,0-.58.2,3.7,3.7,0,0,0-.93.79c-.14.16-.26.35-.39.52a6,6,0,0,0-.56,1c-.12.23-.22.46-.32.7s-.09.26-.14.39L38,15c0,.13-.08.27-.13.43M36.5,11.2a.56.56,0,0,0,0,.1l.26.4L37,12l.34.61a.76.76,0,0,1,0,.11l.12.35s0,0,0,.05a.19.19,0,0,1,0,.11s-.08,0-.12,0l-.3-.27-.12-.08a.62.62,0,0,0,.12.37,5.79,5.79,0,0,1,.4.83c.06.13.1.28.15.41s0,.11,0,.14-.1,0-.14-.06a2.38,2.38,0,0,0-.22-.25.6.6,0,0,0,.07.36l.28.56c0,.1.08.2.12.31a.37.37,0,0,0,.08-.26c0-.15,0-.3,0-.44a4.19,4.19,0,0,0,0-.93,6.83,6.83,0,0,0-.15-1.11c0-.08-.05-.15-.07-.22s-.09-.34-.15-.51a1.49,1.49,0,0,0-.11-.23c-.14-.27-.28-.55-.43-.81a4.52,4.52,0,0,0-.29-.4h0a.32.32,0,0,0,0,.08l.18.48s0,0,0,.07a.18.18,0,0,1,0,.1s-.08,0-.12,0l-.15-.12H36.5M35,21.52h.69c.07,0,.1,0,.11-.09s0-.19,0-.28l.14-.79L36,20h-.17l-.34,0c-.08,0-.14,0-.16.12s-.05.18-.08.27l-.27,1,0,.19m2.83-5.31L37.7,16l-.41.08c-.06,0-.1,0-.13.08a.29.29,0,0,1-.06.08,6.83,6.83,0,0,0-.48.75,3,3,0,0,0-.17.33c0,.09,0,.13.07.15a2.45,2.45,0,0,0,.35,0s0,0,.05,0l.3-.51c0-.09,0-.11-.06-.13l-.13,0s-.09,0-.07-.09a.08.08,0,0,1,.11-.06l.14,0a.17.17,0,0,0,.23-.08,2.43,2.43,0,0,1,.22-.28l.11-.1m-1.93,2.55-.39,1.07.19,0H36a.08.08,0,0,0,.09-.06l.3-1a.58.58,0,0,0-.24,0h-.26m.54-.09.43-1-.47-.06-.43,1c.06.08.11.08.46.08m1-3.52L37.37,15l0,0,.06.14,0,0"/><path class="cls-10" d="M39.11-1.54a16.1,16.1,0,0,0,.78-2.66,10.79,10.79,0,0,0,.41-2.62c0-.18,0-.37,0-.55s0-.14,0-.21c.09-.48.23-1.31,0-1.58q0-.35,0-.7c0-.23-.34-.21-.36,0h0a.18.18,0,0,0-.28.15,11.51,11.51,0,0,1,0,2.87,12.87,12.87,0,0,1-.81,2.71,11.35,11.35,0,0,1-1.05,2.29c-.24.35-.54.66-.8,1s-.41.66-.68,1a.18.18,0,0,0,.16.3.17.17,0,0,0,.21.1.81.81,0,0,0,.38-.27c0,.14.27.21.33,0l.11-.23a.21.21,0,0,0,.17.07.17.17,0,0,0,.32,0l.09-.22h0c.51-.17.76-1,.94-1.48m.64-3.93a6.74,6.74,0,0,1-.15.68h-.06q.12-.33.22-.67"/><path class="cls-5" d="M39.64-9.44a.7.7,0,0,0-.06-.14l-.38.34-.3.25a.13.13,0,0,1-.12,0,.15.15,0,0,1,0-.12,1,1,0,0,0,0-.22l-.07.09a.9.9,0,0,1-.4.39,1.17,1.17,0,0,0-.23.19l-.24.2a.14.14,0,0,1-.12,0s0-.08,0-.11,0-.27,0-.44c-.05,0-.08,0-.1.07a3,3,0,0,1-.56.55c-.2.16-.37.36-.56.53a.63.63,0,0,1-.15.11c-.06,0-.11,0-.1-.08l.06-.48-.13.1-.49.52-.34.39,0,0s-.07.09-.14.05,0-.09,0-.14,0-.33.07-.52L35-7.73l-.49.28-.05,0a.19.19,0,0,1-.11,0s0-.06,0-.09A3.19,3.19,0,0,1,34.52-8a6.43,6.43,0,0,1,.41-.65,3.4,3.4,0,0,1,.7-.76,5.5,5.5,0,0,1,1-.61l.08,0c.31-.08.62-.17.94-.23a4.57,4.57,0,0,1,.88-.09,3.34,3.34,0,0,1,1,.16l.22.05s0-.05,0-.06c-.26-.07-.52-.16-.78-.22a3.38,3.38,0,0,0-.63,0,2.56,2.56,0,0,0-.35.06H37.8s-.11,0-.13-.05,0-.1.07-.13a1.47,1.47,0,0,0,.16-.12.82.82,0,0,0-.37,0,5.31,5.31,0,0,0-.53.13l-.38.11-.07,0s-.1,0-.12,0a.14.14,0,0,1,0-.12c.07-.1.14-.2.22-.3l.15-.18v0l-.15,0-.87.22-.21.08a.12.12,0,0,1-.1,0,.09.09,0,0,1,0-.12l.21-.19a1.29,1.29,0,0,0,.18-.24,1.82,1.82,0,0,0-.49,0c-.16,0-.32.08-.48.1a6.57,6.57,0,0,0-.75.18c-.05,0-.11,0-.15,0s0-.12,0-.17a1,1,0,0,0,.24-.38h-.16l-.82.21s-.1,0-.13,0,0-.1.06-.13l.35-.33a2.26,2.26,0,0,1,.76-.52,2.05,2.05,0,0,1,.37-.11,4.24,4.24,0,0,1,.91-.12l.34,0h0a6.08,6.08,0,0,1,.78.08,3.57,3.57,0,0,1,.91.39c.3.19.6.38.89.59s.41.35.62.53l.19.17.29.34a.28.28,0,0,0,.09.08L39.55-11c-.08-.18-.18-.35-.25-.54a2.72,2.72,0,0,1-.2-.55c.21,0,.28.21.48.24a20.37,20.37,0,0,0-.75-1.94.17.17,0,0,1,.17,0l.38.26.15.07c0-.13-.09-.22-.12-.32a1.91,1.91,0,0,0-.14-.31l-.18-.31-.17-.3c-.05-.09-.16-.16-.18-.3.19,0,.34.17.54.11-.05-.15-.11-.3-.15-.45l-.27-.91a.53.53,0,0,0-.05-.11s0-.08,0-.12.08,0,.12,0l.2.13a2.64,2.64,0,0,1,.56.55,2.34,2.34,0,0,1,.16.32,3.94,3.94,0,0,1,.3.84c0,.21.07.42.11.63a12.71,12.71,0,0,1,.07,1.4,8,8,0,0,1-.08,1.09,3.29,3.29,0,0,0,0,.44,2.88,2.88,0,0,1,.1-.3,7.63,7.63,0,0,1,.56-1,2.42,2.42,0,0,1,.41-.5,2.11,2.11,0,0,0,.34-.35,1.2,1.2,0,0,1,.47-.39,1,1,0,0,0,.15-.12l.16-.11.35-.25a1.16,1.16,0,0,1,.36-.18,2.06,2.06,0,0,0,.28-.13l.22-.09a.11.11,0,0,1,.1,0,.12.12,0,0,1,0,.11.42.42,0,0,1-.1.09l-.5.44,0,.06a.54.54,0,0,0,.31,0s.08,0,.1,0a.13.13,0,0,1,0,.11.32.32,0,0,1-.11.12l-.28.14a11.63,11.63,0,0,0-1.19.77,1.47,1.47,0,0,0-.19.2h.11l.32-.05a.12.12,0,0,1,.1,0,.13.13,0,0,1,0,.12,1.11,1.11,0,0,1-.2.19l-.73.53c-.11.08-.2.18-.32.29l.15,0c.05,0,.11,0,.13,0a.17.17,0,0,1,0,.14,1,1,0,0,1-.18.21c-.1.09-.21.16-.32.24l0,0,0,0,.16-.08.58-.43c.1-.07.21-.13.32-.19s.1,0,.13-.07a1.48,1.48,0,0,1,.57-.26l.08,0a1,1,0,0,1,.41-.16,2,2,0,0,0,.32-.1,1.56,1.56,0,0,1,.42-.11l.69-.08a2.26,2.26,0,0,1,.66,0L46-12l.34,0a1,1,0,0,1,.38.11l.11,0c.05,0,.1,0,.1.09a.1.1,0,0,1-.1.11,4.25,4.25,0,0,1-.53,0,3.09,3.09,0,0,0-.84.08l0,0,.08,0,.46.19c.06,0,.12,0,.1.12S46-11,46-11l-.65,0-1,0,.07,0a2.22,2.22,0,0,1,.6.25.09.09,0,0,1,0,.17.28.28,0,0,1-.13,0H43.27l-.13,0v0l.21.07c.06,0,.11,0,.11.09s0,.1-.12.11l-.41.05-.27.06a1.41,1.41,0,0,0,.2.11,1.39,1.39,0,0,1,.54.41,3.37,3.37,0,0,1,.34.39,2.39,2.39,0,0,1,.23.41,4.42,4.42,0,0,1,.32,1.38,4.81,4.81,0,0,1,0,.55,2,2,0,0,1-.31.87l-.17.31s0,.1-.11.08-.05-.07,0-.13,0-.18,0-.26,0-.34,0-.52,0-.1,0-.14h0l-.15.39a.33.33,0,0,1,0,.1s-.07.06-.09.05a.12.12,0,0,1-.06-.09c0-.15,0-.29,0-.44a2.82,2.82,0,0,0-.22-1l-.06-.15-.12.3s0,.06,0,.08-.07.1-.11.11-.06-.07-.08-.12a4.06,4.06,0,0,0-.37-.95c-.06-.11-.09-.23-.14-.34s-.12-.23-.2-.38l-.13.39a.44.44,0,0,1,0,.1c0,.06-.09.06-.12,0a6.39,6.39,0,0,0-.69-.92l-.16-.22a1.15,1.15,0,0,0-.06.3.47.47,0,0,1,0,.1c0,.09-.06.1-.13,0l-.25-.21a1.27,1.27,0,0,0,0,.15,7,7,0,0,1,0,1.14c0,.35-.06.7-.08,1,0,.13,0,.27,0,.4s0,.21,0,.32c0,.35-.09.7-.12,1A8.23,8.23,0,0,1,40-4.17c0,.16-.06.33-.09.5a.21.21,0,0,0,0,.08c0,.1-.08.17-.1.24a14.76,14.76,0,0,1-.55,1.64c-.19.42-.34.86-.51,1.28-.07.18-.16.36-.24.54l-.15.3-.27.51C38,.89,37.94.87,38,.78s.19-.33.28-.5A13.66,13.66,0,0,0,38.86-1c.16-.42.34-.82.49-1.24.09-.24.16-.5.24-.75l.16-.48-.7-.44-.15.37-.28.72a1.19,1.19,0,0,1-.08.14c0,.09,0,.15.06.17a1.78,1.78,0,0,1,.56.32.09.09,0,0,1,0,.12.06.06,0,0,1-.1,0l-.25-.23a.63.63,0,0,0-.29-.16l-.14-.05c-.12.25-.23.5-.37.74s-.3.45-.46.69l.18.14L38-.79l.38.25a.2.2,0,0,1,.05.11.07.07,0,0,1,0,.06.1.1,0,0,1-.08,0c-.06,0-.1-.11-.16-.15l-.4-.25L37.53-1,36.74.2c-.07,0-.1,0-.07-.12a1,1,0,0,1,.09-.14l.3-.42.14-.2.38-.58c.13-.2.26-.4.39-.61s.15-.29.22-.43l.25-.5a4.9,4.9,0,0,0,.32-.74c.06-.19.15-.37.22-.56s.18-.55.27-.83c0-.07,0-.16,0-.23.07-.24.14-.48.21-.72a1.16,1.16,0,0,0,0-.14c0-.19.06-.38.09-.57s.07-.6.11-.9a4.94,4.94,0,0,0,0-1.06c0-.29-.08-.58-.13-.88m-5.38-2.8a1.73,1.73,0,0,0-.71.62,4,4,0,0,0,.65-.15l.13,0c.15,0,.2,0,.13.17s-.12.19-.18.29l-.1.15.29-.05.57-.12a5,5,0,0,0,.55-.13.78.78,0,0,1,.3,0H36s.09,0,.12,0a.11.11,0,0,1,0,.15l-.08.07a1.51,1.51,0,0,0-.28.31h.07l.28-.07a3.57,3.57,0,0,0,.92-.25.07.07,0,0,1,.11.09.21.21,0,0,1-.08.11,1.49,1.49,0,0,0-.42.43.73.73,0,0,0,0,.1.78.78,0,0,0,.22,0,2,2,0,0,1,.37-.09l.53-.11.48-.12c.08.12.08.14,0,.21L38-10.6l-.08.08a2.88,2.88,0,0,0,.58,0c.19,0,.38,0,.56,0s.36.06.55.09a.29.29,0,0,0,0-.07L39.17-11a4.42,4.42,0,0,0-.62-.54c-.26-.19-.53-.35-.81-.52a3.58,3.58,0,0,0-.37-.21c-.15-.07-.32-.11-.47-.18a1.59,1.59,0,0,0-.64-.1l-.78,0a2.88,2.88,0,0,0-1.21.26M35.4-7.9l-.06.41.14-.11.5-.55c.13-.14.27-.26.4-.39a.11.11,0,0,1,.09,0s0,0,0,.07a1.56,1.56,0,0,1,0,.18L36.41-8a1.13,1.13,0,0,0,.17-.16l.45-.4a2.38,2.38,0,0,0,.37-.34c.1-.14.21-.26.31-.39a.32.32,0,0,1,.09-.05s0,.06,0,.1,0,.26,0,.38,0,.1,0,.16a.23.23,0,0,0,.1-.06A3.46,3.46,0,0,1,38.28-9a.55.55,0,0,0,.18-.14l.38-.54s.07-.05.09,0a.12.12,0,0,1,0,.09.47.47,0,0,1,0,.12l0,.29,0,0c.14-.12.29-.24.42-.38s.32-.23.42-.43l-.26-.06a3.85,3.85,0,0,0-1.3-.13,6.47,6.47,0,0,0-1.28.25,3.25,3.25,0,0,0-1.41.82,4.59,4.59,0,0,0-.9,1.22c0,.07-.06.15-.1.25l.22-.12L35-7.9l.25-.16c.08,0,.12,0,.12.07a.59.59,0,0,1,0,.09m11-3.78.12,0v0a1.15,1.15,0,0,0-.28-.07A9.23,9.23,0,0,1,45-12a2.92,2.92,0,0,0-.81,0c-.15,0-.29.07-.44.08a2.86,2.86,0,0,0-.82.23c-.3.11-.58.27-.88.39a2.24,2.24,0,0,0-.49.3l-.12.09-1,.71-.11.08v0l.27,0c.16,0,.32,0,.49,0l.84,0a2.07,2.07,0,0,0,.66,0l.32-.06s.1,0,.14-.06c-.14-.06-.16-.1-.33-.07h-.19a.09.09,0,0,1-.1-.09c0-.06,0-.09.08-.1h.06c.24,0,.47,0,.71-.05a6.87,6.87,0,0,1,.89-.05l.35,0,.22,0-.07-.06A2.44,2.44,0,0,0,44-10.9c-.06,0-.1,0-.09-.1a.09.09,0,0,1,.1-.08h.28l.91,0h.06l.43,0s.05,0,.1-.05l-.54-.23s-.12,0-.11-.1.07-.09.13-.1h0l.3-.06a1.32,1.32,0,0,1,.19,0h.58M43.47-6.56c0,.08,0,.15,0,.23h0c.06-.16.11-.31.16-.47s0-.11.07-.11.07.06.08.11,0,0,0,0a1.89,1.89,0,0,1,0,.62,1.51,1.51,0,0,0,0,.26h0A2.63,2.63,0,0,1,44-6.14a1.22,1.22,0,0,0,.19-.75,5.64,5.64,0,0,0-.27-1.46,2.49,2.49,0,0,0-.5-.88,2.21,2.21,0,0,0-.93-.63.7.7,0,0,0-.29,0c-.08,0-.14,0-.19-.06s0,0-.05,0l-.38,0a6.15,6.15,0,0,0-1.43.12l-.1,0,.35.26c.11.08.17.21.3.27.1-.16,0-.34.1-.51,0,0,.09.06.11.09A7.78,7.78,0,0,0,41.5-9c.08.11.18.22.29.35,0-.1.07-.18.09-.25s0-.2.06-.3A.09.09,0,0,1,42-9.28a.09.09,0,0,1,.07,0,.44.44,0,0,1,0,.11,1.42,1.42,0,0,0,.09.23,3.27,3.27,0,0,1,.24.54c.11.28.24.55.36.83l0,0c.13-.17.11-.38.19-.56.1,0,.1.09.11.15s.09.39.15.59a3,3,0,0,1,.16.77m-4.16-5.32A8.34,8.34,0,0,0,40-10.42c0-.17.06-.31.08-.45s.06-.5.1-.75,0-.27.05-.41,0-.51,0-.77a6,6,0,0,0,0-1.14c0-.21-.06-.43-.11-.64a3.71,3.71,0,0,0-.47-1.13,2.28,2.28,0,0,0-.43-.45,1.09,1.09,0,0,0-.17-.1c.08.28.16.53.21.79a7.59,7.59,0,0,1,.24.8L39-14.78l.24.48.49,1a.24.24,0,0,1,0,.1s-.07,0-.09,0l-.39-.24-.2-.13a.72.72,0,0,0,0,.1c.23.57.47,1.14.66,1.73a.17.17,0,0,1,0,.16c-.14-.07-.26-.19-.4-.26m3.75-1.6.08-.07-.05,0-.19,0c-.05,0-.1,0-.11,0a.17.17,0,0,1,0-.11s0,0,.06,0l.38-.35a.33.33,0,0,0,0-.06l0,0a4.54,4.54,0,0,0-.44.23c-.26.17-.5.35-.75.53a1.49,1.49,0,0,0-.2.15l-.36.39c-.05.06-.12.1-.17.17a6.84,6.84,0,0,0-.64.92,4.2,4.2,0,0,0-.39.84c0,.14-.11.27-.16.41a.37.37,0,0,0,0,.27c.09-.08.16-.16.25-.22l.5-.37a.6.6,0,0,0,.22-.29,2.38,2.38,0,0,0-.31.12c-.05,0-.1,0-.15,0s0-.1,0-.14.21-.2.33-.3a5.78,5.78,0,0,1,.73-.55.62.62,0,0,0,.28-.27h-.15l-.39.1s-.1,0-.11,0a.19.19,0,0,1,0-.11s0,0,0,0l.27-.25.09-.08.58-.39.29-.18.41-.24M39.39-3.87l.4.2,0-.19.21-1c0-.09,0-.18.06-.27A.15.15,0,0,0,40-5.3l-.29-.18-.16-.07-.12.41-.23.77-.09.27c0,.06,0,.1.06.12l.22.11m.49-6-.18.17a1.22,1.22,0,0,1,0,.14,2.47,2.47,0,0,1,.06.35c0,.11.07.15.17.17l.15,0a.08.08,0,0,1,.07.11c0,.06-.06.06-.1,0l-.13,0c-.1,0-.12,0-.11.09s0,.39,0,.59c0,0,0,.06,0,.06a2.45,2.45,0,0,0,.33.13c.09,0,.13,0,.13-.1a3,3,0,0,0,0-.37,6.83,6.83,0,0,0-.08-.88.29.29,0,0,1,0-.1c0-.07,0-.1-.07-.13l-.32-.26m.23,4.44.14-1.13L40-6.65a.58.58,0,0,0-.23-.08l-.19,1a.08.08,0,0,0,0,.1l.29.15.19.06M39.9-8l-.09,1.12c.31.16.35.18.45.14l.08-1.1L39.9-8m.72-2.58-.12.09,0,0,.12-.1,0,0"/><path class="cls-6" d="M5.88,1.5a.9.9,0,0,0-.08-.27A.84.84,0,0,0,5,.51,1.74,1.74,0,0,1,4.36.33a.14.14,0,0,1-.09,0A5.6,5.6,0,0,1,2.73,0h0A4.37,4.37,0,0,1,1.56-.3C.75-.42,0-.58-.84-.77A.11.11,0,0,1-1-.73,2.09,2.09,0,0,0-1.91-.8a2.79,2.79,0,0,1-.32.28A1.3,1.3,0,0,0-2.62,0a3,3,0,0,0,0,.94c.11,1,1.26,1,2,1.24.9.25,1.77.46,2.69.63L3,3H3a7.59,7.59,0,0,1,2,.17A1.62,1.62,0,0,0,5.88,1.5"/><path class="cls-9" d="M0,.46A1.6,1.6,0,0,0-.79.33H-.95a.11.11,0,0,0-.13,0c-.34.12-.49.65-.1.81a3.17,3.17,0,0,0,.63.11c.17,0,.35.15.53.1S.3.58,0,.46"/><path class="cls-9" d="M3.32,2.1a1.61,1.61,0,0,0,.8.14h.16a.11.11,0,0,0,.13,0c.34-.12.49-.65.11-.81a3.17,3.17,0,0,0-.63-.12c-.17,0-.35-.15-.53-.1S3,2,3.32,2.1"/><path class="cls-10" d="M3.6,1.87A.12.12,0,0,0,3.73,2c.19,0,0,.82.07,1l0,0c.06.09.21,0,.21-.08.25-.38.19-.87.33-1.3.07-.22.3-.7.09-.9h0a.11.11,0,0,0-.19,0,.46.46,0,0,0-.08.2c-.09.29-.12.48-.38.65s-.2.1-.18.3"/><path class="cls-13" d="M3.14,3.23c0,.17.21.17.35.21a.1.1,0,0,0,.12,0c.25.1.53.18.63,0h0c.09,0,.2-.09.13-.18l-.05-.05a.12.12,0,0,0,0-.1C4.23,3,4.14,2.84,4,2.85a.51.51,0,0,1-.27,0,.59.59,0,0,0-.24-.06.13.13,0,0,0-.12.11l-.08,0a.36.36,0,0,0-.14.36"/><path class="cls-13" d="M3.69.56c.1.22.47.15.66.16s.46.11.56-.1a.12.12,0,0,0,0-.23L4.31.19a1.07,1.07,0,0,0-.38-.1c-.18,0-.32.31-.24.47"/><path class="cls-5" d="M6,1.73A1.55,1.55,0,0,0,5.9,1,.71.71,0,0,0,5.37.52L5,.43,4.85.4a.2.2,0,0,1,0,.15L5,.58c.09,0,.18.06.28.07A.56.56,0,0,1,5.73,1a.49.49,0,0,1,0,.11c0,.09,0,.19.06.28a1.17,1.17,0,0,1,0,.63c0,.19-.13.37-.18.56A.88.88,0,0,1,5.25,3a.54.54,0,0,1-.19.06,2.4,2.4,0,0,1-.66,0H4.26a.07.07,0,0,1,0,0v0a.15.15,0,0,1,0,0l.27,0a2.56,2.56,0,0,0,.71,0l.09,0a1.1,1.1,0,0,0,.4-.51c.05-.17.1-.33.15-.5s.07-.27.09-.41"/><path class="cls-5" d="M3.87.2,3.22.08l-.81-.2-1-.24L.84-.5.3-.63a.5.5,0,0,1,0-.08A.22.22,0,0,0,.11-.94,1.27,1.27,0,0,0-.18-1H-.82A.22.22,0,0,0-.95-1a.26.26,0,0,1-.2,0h-.6A.52.52,0,0,0-2.2-.7a1,1,0,0,0-.1.15L-2.53,0a1.29,1.29,0,0,0-.11.51c0,.1,0,.2,0,.3a1.06,1.06,0,0,0,.1.57A1.19,1.19,0,0,0-2,1.87a1.09,1.09,0,0,0,.18.07c.13,0,.15.08.15.22a.14.14,0,0,0,.1.16,1.54,1.54,0,0,0,.26.09l.74.14a.21.21,0,0,0,.22-.1l.05-.08.25,0c.14,0,.29,0,.43.07s.56.17.84.24.57.13.86.17a4.37,4.37,0,0,1,.6.13,2.12,2.12,0,0,0,.42.08h.1a.3.3,0,0,1,0-.11,2.23,2.23,0,0,1-.48-.09c-.38-.12-.79-.12-1.17-.21L.8,2.5a5.24,5.24,0,0,0-.92-.21l-.15,0c0-.09,0-.16,0-.23a.19.19,0,0,0-.14-.2l-.17-.06H-.75a.42.42,0,0,1,0-.11c0-.11.06-.21.09-.32s0-.08.12-.06a4.89,4.89,0,0,0,.52.1c.15,0,.22,0,.24-.19L.33.66C.35.53.33.5.21.46A2.54,2.54,0,0,0-.32.31S-.39.27-.39.25A.89.89,0,0,1-.32-.19L0-.14c.15,0,.21,0,.25-.16L.27-.49l.24,0a2.85,2.85,0,0,0,.7.14.7.7,0,0,1,.14,0l.18,0,.37.09.22.06.63.18.41.1.58.13v0h0A.17.17,0,0,1,3.87.2M-1.27,1.68c-.15,0-.3,0-.34.16A.61.61,0,0,1-2,1.73a1.23,1.23,0,0,1-.41-.37A.91.91,0,0,1-2.55.9,2.28,2.28,0,0,1-2.19-.52a.57.57,0,0,1,.54-.29l.59.06a.83.83,0,0,0,0,.27c0,.1.06.17.18.17l.09,0L-.92.13A.09.09,0,0,1-1,.21H-1.2c-.11,0-.14,0-.17.14a2.86,2.86,0,0,0-.09.59.18.18,0,0,0,.13.2l.15.07-.09.47M-1.1.33c.12,0,.13,0,.1.13L-1.12,1a.41.41,0,0,1,0,.07C-1.37,1-1.38,1-1.34.77s0-.22.06-.32,0-.14.18-.12M-1,1.85-.5,2c.1,0,.14.16.08.28a.47.47,0,0,1-.06.12.12.12,0,0,1-.09,0,4.7,4.7,0,0,1-.87-.16c-.08,0-.1-.05-.09-.14a.48.48,0,0,1,0-.12c0-.13.1-.16.26-.13l.29,0M-.34.47a.31.31,0,0,1,.2,0l.27.1C.2.61.21.66.2.73s0,.23-.06.35-.06.19-.2.18a2.39,2.39,0,0,1-.34,0l-.15,0v0h.13a.09.09,0,0,0,.11,0A1.13,1.13,0,0,0-.17.6s0-.06,0-.07A.8.8,0,0,1-.34.47m-.15,0a.18.18,0,0,0,.17.2c0,.05,0,.1,0,.14S-.34,1-.49,1a.3.3,0,0,0-.26.25l-.09.39s0,.08,0,.13l-.26,0c0-.05,0-.09,0-.13s0-.21,0-.31v0A3.8,3.8,0,0,1-.92.63L-.84.35c0-.11,0-.23.07-.34A1.53,1.53,0,0,1-.71-.19.09.09,0,0,1-.57-.25l.15,0A1.26,1.26,0,0,0-.47,0a3.69,3.69,0,0,0,0,.47M0-.82c.11,0,.14.1.1.21a.65.65,0,0,0,0,.1,1.37,1.37,0,0,1,0,.17A.08.08,0,0,1,0-.3H-.16L-.84-.44c-.06,0-.1,0-.1-.1a.38.38,0,0,1,0-.15s0-.08,0-.12a.06.06,0,0,1,0,0h.05A2.89,2.89,0,0,1,0-.82"/><path class="cls-5" d="M4.69,2.23a2.86,2.86,0,0,0,.09-.59.18.18,0,0,0-.13-.2L4.5,1.36,4.59.89c.12,0,.23,0,.3-.07A1.31,1.31,0,0,0,5,.42a.14.14,0,0,0-.1-.16A1.55,1.55,0,0,0,4.66.17L3.93,0a.21.21,0,0,0-.22.1l0,.06L3.59.35c0,.07,0,.14,0,.2a.19.19,0,0,0,.14.2L3.88.8h.18a.42.42,0,0,1,0,.11C4,1,4,1.12,4,1.23s0,.08-.12.06a4.92,4.92,0,0,0-.52-.1c-.15,0-.22,0-.24.19L3,1.92c0,.13,0,.16.12.2a2.54,2.54,0,0,0,.53.15s.07,0,.07.06a.89.89,0,0,1-.07.44l-.27-.05c-.15,0-.21,0-.25.16L3,3.07H3v0A1.49,1.49,0,0,0,3,3.3H3a.21.21,0,0,0,.17.21,1.27,1.27,0,0,0,.29.06h.64l.11,0a.5.5,0,0,0,.14-.22.77.77,0,0,0,0-.26c0-.1-.06-.17-.18-.17l-.09,0,.11-.41a.09.09,0,0,1,.1-.07h.18c.11,0,.14,0,.17-.14m-1-.12a.31.31,0,0,1-.2,0L3.19,2c-.07,0-.08-.07-.07-.14s0-.23.06-.35.06-.19.2-.18a2.39,2.39,0,0,1,.34,0l.15,0v0H3.74a.09.09,0,0,0-.11,0A1.13,1.13,0,0,0,3.5,2s0,.06,0,.07a.81.81,0,0,1,.12.06m.15,0a.18.18,0,0,0-.17-.2c0-.05,0-.1,0-.14s0-.16.17-.18a.3.3,0,0,0,.26-.25L4.17,1s0-.08,0-.13h.26v0a.06.06,0,0,1,0,.05l0,.23,0,.15a.13.13,0,0,1,0,.08l0,.17a0,0,0,0,1,0,0l0,.11c0,.21-.11.41-.17.61h0c0,.08,0,.17,0,.25A1.53,1.53,0,0,1,4,2.76a.09.09,0,0,1-.14.06l-.15,0a1.24,1.24,0,0,0,.05-.2,3.7,3.7,0,0,0,0-.47m-.34.77L4.16,3s.08,0,.09.07a.06.06,0,0,1,0,0v0a.15.15,0,0,1,0,.05.16.16,0,0,1,0,.07.26.26,0,0,1,0,.13v0a3,3,0,0,1-.9,0,.14.14,0,0,1-.1-.07v0A.39.39,0,0,1,3.24,3l0-.06a.08.08,0,0,1,.06,0h.16M4.58.74l-.29,0L3.82.62C3.73.6,3.7.49,3.73.38a.21.21,0,0,1,0,0v0h0A.19.19,0,0,1,3.82.22a.11.11,0,0,1,.08,0,4.69,4.69,0,0,1,.87.16l0,0,0,0h0l0,0a.21.21,0,0,1,0,.26h0c0,.07-.1.09-.23.06M4.66,1.8c0,.11,0,.22-.06.32s0,.14-.18.12-.13,0-.1-.13l.12-.51a.41.41,0,0,1,0-.07c.23,0,.23.05.19.26"/><path class="cls-5" d="M0,.64A.07.07,0,0,0,0,.77.07.07,0,0,0,0,.64"/><path class="cls-5" d="M0,1a.07.07,0,0,0,0,.13A.07.07,0,0,0,0,1"/><path class="cls-5" d="M3.3,1.83a.07.07,0,0,0,0,.13.07.07,0,0,0,0-.13"/><path class="cls-5" d="M3.39,1.38a.07.07,0,0,0,0,.13.07.07,0,0,0,0-.13"/><path class="cls-5" d="M4.52,1.63h0a.07.07,0,0,0,.07.11h0a.07.07,0,0,0-.07-.11"/><path class="cls-5" d="M4.46,2.06a.07.07,0,0,0,0,.13.07.07,0,0,0,0-.13"/><path class="cls-14" d="M38.65,5.7a.9.9,0,0,0,0-.28.84.84,0,0,0-.71-.84,1.74,1.74,0,0,1-.58-.28.14.14,0,0,1-.1,0,5.6,5.6,0,0,1-1.46-.59h0a4.36,4.36,0,0,1-1.09-.47c-.78-.25-1.54-.54-2.3-.85a.11.11,0,0,1-.14,0,2.09,2.09,0,0,0-.91-.21,2.81,2.81,0,0,1-.36.22,1.3,1.3,0,0,0-.47.5,3,3,0,0,0-.18.92c-.05,1,1.08,1.22,1.79,1.54s1.68.74,2.56,1l.9.32h0a7.58,7.58,0,0,1,1.91.48A1.62,1.62,0,0,0,38.65,5.7"/><path class="cls-12" d="M33,3.74a1.61,1.61,0,0,0-.77-.26l-.07,0H32.1A.11.11,0,0,0,32,3.39c-.36.07-.58.57-.23.78a3.18,3.18,0,0,0,.61.21c.16.06.32.2.51.18s.42-.66.16-.82"/><path class="cls-6" d="M32.72,3.92a.12.12,0,0,0-.11-.13c-.19,0,.16-.81.08-1l0,0c0-.09-.2-.06-.22,0-.3.34-.32.84-.52,1.24-.1.21-.4.65-.22.88h0a.11.11,0,0,0,.18.05A.46.46,0,0,0,32,4.77c.13-.28.19-.46.48-.58s.22-.06.22-.27"/><path class="cls-15" d="M33.38,2.64c0-.17-.18-.2-.31-.26a.1.1,0,0,0-.12,0c-.23-.13-.5-.25-.62-.1h0c-.09,0-.21.06-.15.16l0,.06a.12.12,0,0,0,0,.1c.06.14.13.27.29.28a.5.5,0,0,1,.26.08.59.59,0,0,0,.23.09A.13.13,0,0,0,33.11,3h.08a.36.36,0,0,0,.19-.33"/><path class="cls-15" d="M32.43,5.21C32.36,5,32,5,31.8,4.95s-.43-.18-.57,0a.12.12,0,0,0-.07.23l.6.29a1.06,1.06,0,0,0,.36.15c.18,0,.36-.26.31-.43"/><path class="cls-12" d="M36,5.88a1.6,1.6,0,0,0,.77.26l.07,0H37a.11.11,0,0,0,.12.06c.36-.06.59-.56.23-.78a3.17,3.17,0,0,0-.61-.21c-.16-.06-.32-.2-.51-.18s-.42.66-.17.82"/><path class="cls-6" d="M36.34,5.7a.12.12,0,0,0,.1.13c.19,0-.17.81-.1,1l0,0c0,.09.2.07.22,0,.31-.33.33-.83.53-1.23.1-.21.41-.64.23-.88h0a.11.11,0,0,0-.18-.05.46.46,0,0,0-.11.19c-.14.28-.19.45-.48.58s-.22.06-.23.27"/><path class="cls-15" d="M35.67,7c0,.17.18.2.31.26a.1.1,0,0,0,.12,0c.23.14.5.26.62.11h0c.09,0,.21-.06.15-.16l0-.06a.12.12,0,0,0,0-.1c-.06-.14-.13-.27-.29-.28a.5.5,0,0,1-.26-.09.59.59,0,0,0-.23-.09.13.13,0,0,0-.13.09h-.08a.36.36,0,0,0-.19.33"/><path class="cls-15" d="M36.64,4.42c.07.23.44.22.63.27s.43.18.57,0a.12.12,0,0,0,.07-.23l-.6-.3A1.06,1.06,0,0,0,37,4c-.18,0-.36.26-.31.42"/><path class="cls-5" d="M38.7,5.94a1.55,1.55,0,0,0,0-.69.71.71,0,0,0-.43-.6l-.38-.15-.12,0a.2.2,0,0,1,0,.15l.12,0c.09,0,.17.09.26.11a.56.56,0,0,1,.38.41.49.49,0,0,1,0,.12c0,.1,0,.19,0,.29a1.17,1.17,0,0,1-.15.62c-.08.18-.18.35-.27.52a.88.88,0,0,1-.42.4.54.54,0,0,1-.2,0,2.4,2.4,0,0,1-.65-.1L36.8,7a.07.07,0,0,1,0,0h0a.14.14,0,0,1,0,0l.26.07a2.57,2.57,0,0,0,.7.09l.09,0a1.1,1.1,0,0,0,.47-.44c.08-.16.15-.31.22-.47s.11-.26.16-.39"/><path class="cls-5" d="M36.87,4.09l-.62-.22-.77-.32-.93-.4L34,2.92l-.51-.21a.51.51,0,0,1,0-.08.22.22,0,0,0-.13-.26,1.27,1.27,0,0,0-.28-.1l-.63-.1a.22.22,0,0,0-.13,0,.26.26,0,0,1-.21,0l-.59-.11a.52.52,0,0,0-.48.15,1,1,0,0,0-.12.13l-.31.47a1.29,1.29,0,0,0-.19.48c0,.1,0,.2-.06.3a1.06,1.06,0,0,0,0,.57,1.19,1.19,0,0,0,.45.61,1.08,1.08,0,0,0,.16.1c.12.07.14.11.11.24a.14.14,0,0,0,.07.18,1.55,1.55,0,0,0,.24.13l.71.25a.21.21,0,0,0,.24-.06l.07-.07.24.09c.14,0,.28.08.41.14s.53.25.8.37.54.22.82.31a4.39,4.39,0,0,1,.57.22,2.12,2.12,0,0,0,.4.15l.1,0a.3.3,0,0,1,.05-.1,2.23,2.23,0,0,1-.46-.16c-.36-.18-.76-.24-1.12-.4l-.72-.33a5.25,5.25,0,0,0-.87-.36l-.14,0c0-.09,0-.16,0-.23A.19.19,0,0,0,32.4,5l-.16-.08-.18,0a.42.42,0,0,1,0-.11l.13-.3c0-.06.06-.07.13,0a4.91,4.91,0,0,0,.5.18c.15,0,.22,0,.27-.15L33.31,4c0-.12,0-.16-.09-.22a2.53,2.53,0,0,0-.5-.23s-.06-.05-.06-.07A.89.89,0,0,1,32.8,3l.26.1c.14,0,.21,0,.27-.12l.09-.17.23.08a2.85,2.85,0,0,0,.66.25.7.7,0,0,1,.13.06l.17.08.35.14.21.09.59.27.39.16.55.22v0h0a.17.17,0,0,1,.14-.09m-5.31.64c-.15,0-.29-.07-.37.11a.61.61,0,0,1-.36-.17,1.23,1.23,0,0,1-.35-.44.91.91,0,0,1-.06-.47A2.28,2.28,0,0,1,31,2.42a.57.57,0,0,1,.58-.2l.58.15a.83.83,0,0,0-.05.27c0,.1,0,.18.15.2l.08,0-.18.39a.09.09,0,0,1-.11.06l-.18,0c-.11,0-.15,0-.19.11a2.86,2.86,0,0,0-.18.57.18.18,0,0,0,.1.22l.14.09-.16.45m.38-1.31c.11,0,.12,0,.08.15l-.19.48,0,.06c-.22-.08-.22-.09-.15-.29s.07-.21.11-.31.06-.13.2-.09M31.83,5l.45.17c.1,0,.11.18,0,.29a.47.47,0,0,1-.08.1.12.12,0,0,1-.1,0,4.69,4.69,0,0,1-.83-.3c-.08,0-.09-.07-.07-.15a.47.47,0,0,1,0-.11c.07-.12.12-.14.28-.08l.28.06m.84-1.27a.31.31,0,0,1,.19.05c.09,0,.17.09.25.14s.07.08,0,.15-.08.22-.12.33-.09.18-.23.15a2.41,2.41,0,0,1-.32-.1l-.14-.06v0l.12,0a.09.09,0,0,0,.12,0,1.14,1.14,0,0,0,.21-.47.09.09,0,0,0,0-.08.8.8,0,0,1-.11-.08m-.15,0a.18.18,0,0,0,.14.22c0,.05,0,.1,0,.14s0,.15-.19.15a.3.3,0,0,0-.3.21L32,4.74l-.06.12-.26-.06,0-.13.09-.3v0a3.79,3.79,0,0,1,.27-.59l.12-.26c0-.11.08-.22.12-.33a1.53,1.53,0,0,1,.1-.18.09.09,0,0,1,.15,0L32.7,3a1.25,1.25,0,0,0-.08.19,3.7,3.7,0,0,0-.1.46m.72-1.18c.1,0,.12.12.06.22a.66.66,0,0,0,0,.1A1.38,1.38,0,0,1,33.2,3a.08.08,0,0,1-.07,0l-.16,0-.65-.23c-.06,0-.09-.05-.08-.11a.38.38,0,0,1,0-.15l0-.12a.06.06,0,0,1,0,0h.05a2.89,2.89,0,0,1,.83.17"/><path class="cls-5" d="M37.36,6.22a2.86,2.86,0,0,0,.18-.57.18.18,0,0,0-.1-.22l-.14-.09.16-.45c.12,0,.23,0,.31,0A1.31,1.31,0,0,0,38,4.49a.14.14,0,0,0-.07-.17,1.55,1.55,0,0,0-.24-.13L37,3.93a.21.21,0,0,0-.24.06l0,0-.1.15c0,.07,0,.13,0,.2a.19.19,0,0,0,.1.22l.16.08.18,0a.42.42,0,0,1,0,.11l-.13.3c0,.06-.06.07-.13,0a4.85,4.85,0,0,0-.5-.18c-.15,0-.22,0-.27.15l-.19.51c0,.12,0,.16.09.22a2.54,2.54,0,0,0,.5.23s.06.05.06.07a.89.89,0,0,1-.14.42L36,6.5c-.14,0-.21,0-.27.12l-.09.17h0v0a1.49,1.49,0,0,0,0,.21h0a.21.21,0,0,0,.14.23,1.27,1.27,0,0,0,.28.1l.63.1h.11a.5.5,0,0,0,.17-.2A.77.77,0,0,0,36.94,7c0-.1,0-.18-.15-.2l-.08,0,.18-.39A.09.09,0,0,1,37,6.31l.18,0c.11,0,.15,0,.19-.11m-1-.28a.31.31,0,0,1-.19-.05c-.09,0-.17-.09-.25-.14s-.07-.08,0-.15.08-.22.12-.33.09-.18.23-.15a2.37,2.37,0,0,1,.32.1l.14.06v0l-.12,0a.09.09,0,0,0-.12,0,1.14,1.14,0,0,0-.21.47.1.1,0,0,0,0,.08.81.81,0,0,1,.11.08m.15,0a.18.18,0,0,0-.14-.22c0-.05,0-.1,0-.14s0-.15.19-.15a.3.3,0,0,0,.3-.21L37,4.89l.06-.12.18,0h.08v0a.06.06,0,0,1,0,.05l-.08.22,0,.14a.13.13,0,0,1,0,.08l-.07.16a0,0,0,0,1,0,0l-.05.1c-.08.2-.17.39-.27.58h0c0,.08-.05.16-.09.24a1.52,1.52,0,0,1-.1.18.09.09,0,0,1-.15,0l-.14-.06a1.24,1.24,0,0,0,.08-.19,3.68,3.68,0,0,0,.1-.46m-.46.71.65.23s.08,0,.08.08a.06.06,0,0,1,0,0v0a.15.15,0,0,1,0,.05.17.17,0,0,1,0,.07.26.26,0,0,1-.07.12v0a3,3,0,0,1-.88-.18.14.14,0,0,1-.09-.09.07.07,0,0,1,0,0,.39.39,0,0,1,.11-.3l0-.06a.08.08,0,0,1,.07,0l.16,0m1.43-1.94-.28-.07-.45-.17c-.09,0-.1-.15-.05-.25V4.18h0a.19.19,0,0,1,.08-.08.12.12,0,0,1,.08,0,4.69,4.69,0,0,1,.83.3l0,0,0,0h0l0,0a.21.21,0,0,1-.09.25h0c-.05.07-.11.07-.24,0M37.4,5.8c0,.1-.07.21-.11.31s-.06.13-.2.09-.12,0-.08-.15l.19-.48,0-.06c.22.08.22.09.15.29"/><path class="cls-5" d="M33,3.91A.07.07,0,0,0,33,4a.07.07,0,0,0,0-.12"/><path class="cls-5" d="M32.88,4.25a.07.07,0,0,0,0,.12.07.07,0,0,0,0-.12"/><path class="cls-5" d="M31.67,3.93h0a.07.07,0,0,0,.12,0h0a.07.07,0,0,0-.12,0"/><path class="cls-5" d="M31.9,3.52a.07.07,0,0,0,0,.12.07.07,0,0,0,0-.12"/><path class="cls-5" d="M36,5.61a.07.07,0,0,0,0,.12.07.07,0,0,0,0-.12"/><path class="cls-5" d="M36.21,5.18a.07.07,0,0,0,0,.12.07.07,0,0,0,0-.12"/><path class="cls-5" d="M37.29,5.61h0a.07.07,0,0,0,.06.12h0a.07.07,0,0,0-.06-.12"/><path class="cls-5" d="M37.17,6a.07.07,0,0,0,0,.12.07.07,0,0,0,0-.12"/><path class="cls-11" d="M48.72,25.4a.9.9,0,0,0,.27.08A.84.84,0,0,0,50,25.17a1.74,1.74,0,0,1,.49-.42.14.14,0,0,1,0-.09,5.6,5.6,0,0,1,1.13-1.1h0a4.37,4.37,0,0,1,.87-.81c.54-.61,1.11-1.19,1.7-1.76a.11.11,0,0,1,0-.14,2.09,2.09,0,0,0,.56-.75,2.78,2.78,0,0,1-.06-.42,1.3,1.3,0,0,0-.27-.63,3,3,0,0,0-.77-.54c-.89-.45-1.55.5-2.13,1s-1.35,1.24-2,1.92l-.66.7,0,0a7.58,7.58,0,0,1-1.21,1.56,1.62,1.62,0,0,0,.94,1.66"/><path class="cls-10" d="M49.6,22.93a1.6,1.6,0,0,0-.55.6.11.11,0,0,0,0,.05l0,.08a.11.11,0,0,0-.11.08c-.09.35.28.76.62.53a3.17,3.17,0,0,0,.44-.47c.12-.13.32-.21.37-.39s-.43-.65-.68-.48"/><path class="cls-15" d="M49.64,23.28a.12.12,0,0,0-.16,0c-.11.16-.67-.48-.9-.5h0c-.1,0-.14.16,0,.22.18.42.63.63.92,1,.15.18.43.63.71.56h0a.11.11,0,0,0,.12-.14c0-.08-.08-.12-.13-.18-.2-.24-.34-.36-.33-.67,0-.16,0-.22-.16-.31"/><path class="cls-6" d="M48.75,22.16c-.16-.06-.26.08-.36.18a.1.1,0,0,0,0,.12c-.22.15-.44.35-.35.52h0c-.06.07,0,.21.08.2l.07,0a.12.12,0,0,0,.09,0c.15,0,.3,0,.38-.15a.5.5,0,0,1,.18-.2A.59.59,0,0,0,49,22.7a.13.13,0,0,0,0-.15.21.21,0,0,0,0-.08.36.36,0,0,0-.23-.31"/><path class="cls-6" d="M50.7,24.08c-.24,0-.38.32-.5.47s-.34.32-.22.52c-.08.1.07.25.18.15l.51-.43a1.06,1.06,0,0,0,.29-.26c.09-.16-.09-.44-.26-.46"/><path class="cls-5" d="M48.48,25.35a1.55,1.55,0,0,0,.62.32.71.71,0,0,0,.73-.15l.29-.29.09-.09a.2.2,0,0,1-.14-.05l-.09.09c-.07.07-.15.12-.21.19a.56.56,0,0,1-.53.18l-.12,0-.27-.1a1.17,1.17,0,0,1-.51-.38c-.13-.14-.24-.31-.37-.46a.88.88,0,0,1-.19-.54.54.54,0,0,1,.05-.2,2.4,2.4,0,0,1,.35-.55l.08-.11h0l0,0-.17.21a2.56,2.56,0,0,0-.36.61.18.18,0,0,0,0,.09,1.1,1.1,0,0,0,.21.61l.34.39c.09.1.19.21.3.3"/><path class="cls-5" d="M50.9,24.42l.45-.48.6-.57.73-.69.44-.42.4-.38.07,0a.22.22,0,0,0,.29,0,1.27,1.27,0,0,0,.21-.21c.12-.18.23-.36.34-.54a.22.22,0,0,0,0-.13.26.26,0,0,1,.07-.2l.34-.5a.52.52,0,0,0,.05-.5,1,1,0,0,0-.07-.16l-.3-.47a1.29,1.29,0,0,0-.37-.37c-.08-.06-.17-.11-.25-.17a1.06,1.06,0,0,0-.53-.23,1.19,1.19,0,0,0-.74.16,1.08,1.08,0,0,0-.15.11c-.11.08-.15.08-.26,0a.14.14,0,0,0-.19,0,1.55,1.55,0,0,0-.21.17l-.52.55a.21.21,0,0,0,0,.24l0,.09-.18.19c-.1.11-.19.23-.29.32s-.44.38-.66.58-.41.41-.61.63a4.38,4.38,0,0,1-.43.43,2.13,2.13,0,0,0-.3.3l-.06.08a.3.3,0,0,1,.07.09,2.23,2.23,0,0,1,.33-.36c.31-.26.52-.6.81-.87s.4-.35.59-.52a5.25,5.25,0,0,0,.68-.66l.1-.11.19.14a.19.19,0,0,0,.24,0,1.06,1.06,0,0,0,.14-.11,1.2,1.2,0,0,0,.1-.15l.09.06.22.24s0,.08,0,.14a4.91,4.91,0,0,0-.37.39c-.1.12-.09.2,0,.31l.4.38c.09.09.13.09.23,0a2.54,2.54,0,0,0,.41-.36.1.1,0,0,1,.09,0,.89.89,0,0,1,.33.3l-.19.2c-.1.11-.1.18,0,.3l.12.15a2.3,2.3,0,0,1-.17.17,2.85,2.85,0,0,0-.5.51.69.69,0,0,1-.11.1l-.14.13-.27.26-.17.16-.49.43-.3.3-.42.42v0h0a.17.17,0,0,1,0,.16m1.54-5.12c.08-.12.18-.24,0-.38a.61.61,0,0,1,.3-.26,1.23,1.23,0,0,1,.54-.14.91.91,0,0,1,.46.13,2.28,2.28,0,0,1,1,1.07.57.57,0,0,1,0,.61c-.11.16-.24.31-.37.47-.08-.05-.13-.13-.22-.16s-.18,0-.24.05l-.07.06-.29-.32a.09.09,0,0,1,0-.12l.09-.15a.15.15,0,0,0,0-.22,2.86,2.86,0,0,0-.45-.4.18.18,0,0,0-.24,0l-.14.09-.35-.33m1,.88c-.07.09-.09.09-.17,0L53,19.81l0-.06c.16-.17.17-.17.33,0l.24.22c.09.1.09.11,0,.22m-1.35-.72c-.11.12-.22.23-.33.34s-.2,0-.27-.08a.47.47,0,0,1-.06-.12.12.12,0,0,1,0-.1,4.7,4.7,0,0,1,.61-.64c.07-.05.1-.06.17,0l.09.09c.09.11.08.17,0,.29a2.84,2.84,0,0,1-.17.23M53,20.73c0,.07-.08.11-.13.16s-.15.11-.23.17-.1,0-.15,0l-.26-.24c-.1-.09-.12-.16,0-.27a2.4,2.4,0,0,1,.22-.26l.12-.1,0,0a.75.75,0,0,1-.07.1.09.09,0,0,0,0,.12,1.13,1.13,0,0,0,.34.38.09.09,0,0,0,.08,0,.81.81,0,0,1,.11-.07m.09-.13a.18.18,0,0,0-.26,0l-.12-.08c-.11-.09-.12-.1-.06-.24a.3.3,0,0,0-.07-.36l-.27-.29-.08-.1.16-.21.1.08.24.2,0,0a3.79,3.79,0,0,1,.43.48l.19.22c.08.09.17.16.25.24a1.55,1.55,0,0,1,.13.16.09.09,0,0,1,0,.15l-.11.1a1.25,1.25,0,0,0-.14-.15,3.69,3.69,0,0,0-.39-.27m.79,1.13c-.08.08-.16.06-.23,0l-.07-.07-.12-.13a.08.08,0,0,1,0-.07.74.74,0,0,1,.1-.13L54,20.8s.08-.06.13,0a.38.38,0,0,1,.12.09l.09.09a.06.06,0,0,1,0,.06h0a.07.07,0,0,1,0,0h0a2.89,2.89,0,0,1-.49.69"/><path class="cls-5" d="M48.75,24a2.86,2.86,0,0,0,.45.4.18.18,0,0,0,.24,0l.14-.09.35.33c-.06.1-.14.19-.1.29a1.31,1.31,0,0,0,.27.32.14.14,0,0,0,.18,0,1.55,1.55,0,0,0,.21-.17l.52-.55a.21.21,0,0,0,0-.24l0-.06-.1-.15L50.77,24a.19.19,0,0,0-.24,0,1.07,1.07,0,0,0-.14.11,1.22,1.22,0,0,0-.1.15.42.42,0,0,1-.09-.06L50,24s0-.08,0-.14a4.89,4.89,0,0,0,.37-.39c.1-.12.09-.2,0-.31l-.4-.38c-.09-.09-.13-.09-.23,0a2.53,2.53,0,0,0-.41.36.1.1,0,0,1-.09,0,.89.89,0,0,1-.33-.3l.19-.2c.1-.11.1-.18,0-.3l-.12-.15h0L48.75,22h0a.21.21,0,0,0-.27,0,1.27,1.27,0,0,0-.21.21c-.12.18-.23.36-.34.54a.26.26,0,0,0,0,.1.5.5,0,0,0,.11.23.77.77,0,0,0,.22.15c.1,0,.18,0,.24-.05l.07-.06.29.32a.09.09,0,0,1,0,.12l-.09.15a.15.15,0,0,0,0,.22m.66-.8c0-.07.08-.11.13-.16s.15-.11.23-.17.1,0,.15,0l.26.24c.1.09.12.16,0,.27a2.39,2.39,0,0,1-.22.26l-.12.1,0,0a.76.76,0,0,1,.07-.1.09.09,0,0,0,0-.12,1.14,1.14,0,0,0-.34-.38.1.1,0,0,0-.08,0,.81.81,0,0,1-.11.07m-.09.13a.18.18,0,0,0,.26,0l.12.08c.11.09.12.1.06.24a.3.3,0,0,0,.07.36l.27.29.08.1-.11.15,0,0,0,0h0l-.05,0-.17-.16-.11-.1a.13.13,0,0,1-.05-.07l-.12-.13,0,0L49.4,24c-.15-.15-.29-.31-.42-.48h0l-.19-.18a1.54,1.54,0,0,1-.13-.16.09.09,0,0,1,0-.15l.11-.1a1.24,1.24,0,0,0,.14.15,3.69,3.69,0,0,0,.39.27m-.47-.7-.48.51a.1.1,0,0,1-.1,0l0,0h0l0,0-.05-.05A.26.26,0,0,1,48,23l0,0a3,3,0,0,1,.51-.74.14.14,0,0,1,.12,0h0a.39.39,0,0,1,.23.22l0,.05a.08.08,0,0,1,0,.07.74.74,0,0,1-.1.13m1.21,2.09a2.8,2.8,0,0,1,.17-.23c.11-.12.22-.23.33-.34s.18,0,.25.05l0,0,0,0h0a.19.19,0,0,1,0,.11.12.12,0,0,1,0,.08,4.69,4.69,0,0,1-.61.64l0,0h-.07A.21.21,0,0,1,50,25h0c0-.08,0-.13.07-.23m-.94-.51L48.89,24c-.09-.1-.09-.11,0-.22s.09-.09.17,0l.36.37,0,.06c-.16.17-.17.17-.33,0"/><path class="cls-5" d="M49.85,23.05a.07.07,0,0,0-.1-.09.07.07,0,0,0,.1.09"/><path class="cls-5" d="M49.35,24.19h0a.07.07,0,0,0-.13,0h0a.07.07,0,0,0,.13,0"/><path class="cls-5" d="M49,23.91a.07.07,0,0,0-.1-.09.07.07,0,0,0,.1.09"/><path class="cls-9" d="M23.91,27c0-.09.2-1.1.2-1.1l.76-2.06.35-1.22-1.45-2.15-.24.4-1.12,3-.23.6.5.82a9.29,9.29,0,0,1,.7.82,10.68,10.68,0,0,0,.53.93"/><polygon class="cls-13" points="26.91 23.23 25.34 20.93 23.77 20.44 24.11 21.12 25.23 22.59 26.91 23.23"/><path class="cls-6" d="M29.74,28.7a18.42,18.42,0,0,1-2.45-1.64,4,4,0,0,1-.71-1.28,4.07,4.07,0,0,1,.08-1.18L27,23.31,26.35,23l-1.12-.41-.73,2-.38,1.26-.2,1.1,1.54.52,1.41.52,1.25.47.52.14.94.13Z"/><path class="cls-5" d="M23.64,20.44l-.41,1.08c-.05.13-.1.27-.16.4-.17.37-.29.75-.42,1.14s-.28.73-.42,1.1v0a.34.34,0,0,0,.05.45,3.24,3.24,0,0,1,.42.59c.1.16.22.31.33.46l.43.66c.1.15.18.31.27.47s.1.16.28.21l.18.08a2,2,0,0,0,.5.21c.1,0,.2.08.3.11l.39.11.85.3,1.42.54.29.12a2.94,2.94,0,0,0,.77.18l.63.13.45.06c.1,0,.14-.07.09-.16l-.34-.58A8.81,8.81,0,0,0,28.76,27l0,0a4.75,4.75,0,0,0-.32-.55L28.19,26l-.06-.11s0-.08-.06-.09a.14.14,0,0,1-.1-.07c-.19-.13-.38-.27-.57-.4a1.92,1.92,0,0,1-.47-.4.06.06,0,0,1,0-.09.58.58,0,0,1-.13-.27.07.07,0,0,1,0,0,.5.5,0,0,1,0-.31c.07-.24.13-.48.19-.73v0a.48.48,0,0,0,0-.15.45.45,0,0,0-.12-.2,1.54,1.54,0,0,1-.11-.18l-.07-.09c-.12-.16-.25-.31-.37-.47s-.27-.41-.4-.62l-.44-.64L25.43,21a.56.56,0,0,0-.37-.17.06.06,0,0,1,0,0l-.38-.12-.79-.28-.11,0a.09.09,0,0,0-.09.06M26.7,23l.1.15-.13,0c-.15-.07-.3-.16-.46-.22l-.77-.28c-.13,0-.27-.08-.31-.24a.17.17,0,0,0,0-.06L24.85,22c-.14-.18-.26-.37-.41-.55a3.58,3.58,0,0,1-.5-.77l-.08-.14a.16.16,0,0,1,.11,0l.56.2.62.2a.43.43,0,0,1,.22.18l.28.4.23.33c.09.14.17.3.28.43s.35.44.53.66m2.79,5.32.11.17,0,0-.46-.27c-.18-.11-.35-.25-.54-.35a5.51,5.51,0,0,1-.71-.41,2.94,2.94,0,0,1-.4-.34c-.08-.09-.17-.17-.25-.26a2.27,2.27,0,0,1-.27-.37,4.69,4.69,0,0,1-.21-.53,1.78,1.78,0,0,1-.08-.28,3.2,3.2,0,0,1,0-.83s0-.05,0-.09l.09.12a1.49,1.49,0,0,0,.17.22,4.26,4.26,0,0,0,.56.4,1,1,0,0,1,.36.32c.07.12.14.23.22.34a3,3,0,0,0,.31.48.41.41,0,0,1,0,.08,7.07,7.07,0,0,0,.37.62,6.4,6.4,0,0,1,.43.63l.21.35m-5.41-1.74a1.37,1.37,0,0,0,.06-.45.27.27,0,0,1,0-.1c.07-.25.14-.49.21-.73s.09-.24.14-.36l.15-.42.24-.67.21-.59.16-.46c0-.08,0-.09.12-.07l.42.15a3,3,0,0,1,.71.31h0l.39.17,0,.09c0,.13-.09.26-.12.4a9.41,9.41,0,0,0-.25,1.38,1.33,1.33,0,0,0,.12.81.24.24,0,0,1,0,.07,1.71,1.71,0,0,0,.42.81,3.74,3.74,0,0,0,.66.64l.24.16.3.17.12.07.61.39.54.34v0a1,1,0,0,1-.19,0,5.09,5.09,0,0,0-.75-.13,2.57,2.57,0,0,1-.61-.15l-.76-.3-.93-.35c-.44-.18-.89-.3-1.33-.44a4.52,4.52,0,0,1-.86-.36c-.06,0-.09-.07-.07-.13s0-.16,0-.23M23.53,21l.12-.28.08-.15.05,0,.05.08A8.49,8.49,0,0,0,24.72,22l.37.48a.18.18,0,0,1,0,.11,1,1,0,0,1,0,.22l-.46,1.34-.08.21c-.14.42-.28.84-.42,1.26a2,2,0,0,0-.09.45,5.35,5.35,0,0,1-.14.72l0,0-.07-.15a1.8,1.8,0,0,0-.09-.17l-.3-.45a.56.56,0,0,1-.08-.13.73.73,0,0,0-.21-.31,3.22,3.22,0,0,1-.28-.37,2.64,2.64,0,0,1-.27-.44,1,1,0,0,0-.17-.27.22.22,0,0,1-.06-.26l.26-.75c.07-.2.15-.4.22-.6s.11-.35.17-.53l0-.05.37-.87.17-.42"/><path class="cls-7" d="M26.87,24.7a.94.94,0,0,0,.22.27,3.35,3.35,0,0,0,.57.43h0l.27.18c.08.05.13.1.14.19v0a0,0,0,0,1-.06,0h0c0-.07-.21-.16-.26-.19a4.21,4.21,0,0,1-.38-.27l-.08-.07-.16-.13s0,.06,0,0A1,1,0,0,1,27,25a.75.75,0,0,1-.13-.19,0,0,0,0,1,0,0v0a0,0,0,0,1,0,0"/></g></g></g></g></svg>