<svg width="36" height="36" viewBox="0 0 36 36" fill="none" xmlns="http://www.w3.org/2000/svg">
<path fill-rule="evenodd" clip-rule="evenodd" d="M24.1739 8.2522H11.8264C9.85578 8.2522 8.2522 9.85568 8.2522 11.8264V24.1738C8.2522 26.1448 9.85578 27.7484 11.8264 27.7484H24.1739C26.1448 27.7484 27.7484 26.1448 27.7484 24.1738V11.8264C27.7484 9.85578 26.1448 8.2522 24.1739 8.2522ZM17.9999 24.4182C14.4613 24.4182 11.582 21.5389 11.582 17.9999C11.582 14.4613 14.4613 11.582 17.9999 11.582C21.5389 11.582 24.4182 14.4613 24.4182 17.9999C24.4182 21.5389 21.5389 24.4182 17.9999 24.4182ZM24.6247 12.9092C23.7869 12.9092 23.1057 12.2279 23.1057 11.3906C23.1057 10.5532 23.7869 9.872 24.6247 9.872C25.462 9.872 26.1432 10.5532 26.1432 11.3906C26.1432 12.228 25.462 12.9092 24.6247 12.9092Z" fill="#333F48"/>
<path fill-rule="evenodd" clip-rule="evenodd" d="M17.9998 14.2942C15.957 14.2942 14.2935 15.9569 14.2935 17.9997C14.2935 20.0433 15.957 21.7064 17.9998 21.7064C20.0434 21.7064 21.7057 20.0433 21.7057 17.9997C21.7057 15.9569 20.0434 14.2942 17.9998 14.2942Z" fill="#333F48"/>
<path fill-rule="evenodd" clip-rule="evenodd" d="M0 0V36H36V0H0ZM30.46 24.1737C30.46 27.6405 27.6405 30.46 24.1738 30.46H11.8263C8.35991 30.46 5.54004 27.6405 5.54004 24.1737V11.8263C5.54004 8.35991 8.35991 5.54004 11.8263 5.54004H24.1738C27.6405 5.54004 30.46 8.35991 30.46 11.8263V24.1737Z" fill="#333F48"/>
</svg>
