<svg width="17" height="19" viewBox="0 0 17 19" fill="none" xmlns="http://www.w3.org/2000/svg">
<path d="M15.7683 11.1561C15.7043 12.9844 14.8811 14.635 13.5732 15.8454C12.2104 17.1066 10.3262 17.8853 8.25 17.8853C6.17378 17.8853 4.28963 17.1066 2.92683 15.8454C1.56402 14.5842 0.722561 12.8405 0.722561 10.9191C0.722561 8.99769 1.56402 7.25402 2.92683 5.99282C4.25305 4.76548 6.06402 4.00368 8.06707 3.95289V7.16091C9.40244 5.9251 10.6829 4.73162 11.936 3.57199C10.6738 2.41236 9.38415 1.21888 8.06707 0V3.29266C5.8628 3.33499 3.8689 4.18143 2.41463 5.52727C0.923781 6.90698 0 8.81994 0 10.9276C0 13.0352 0.923781 14.9482 2.41463 16.3279C3.90549 17.7076 5.97256 18.5625 8.25 18.5625C10.5274 18.5625 12.5945 17.7076 14.0854 16.3279C15.5213 14.999 16.436 13.1791 16.5 11.1646H15.7683V11.1561Z" fill="black"/>
</svg>
