<svg width="36" height="36" viewBox="0 0 36 36" fill="none" xmlns="http://www.w3.org/2000/svg">
<path d="M15.8308 26.6293C15.8308 26.6735 15.8308 26.7288 15.8063 26.7596C15.6404 26.9737 15.4429 27.1522 15.1838 27.247C14.9587 27.3292 14.7794 27.2289 14.732 26.995C14.713 26.9026 14.7122 26.8055 14.7122 26.7107C14.7114 24.9688 14.7067 21.3975 14.7043 21.3541H13.4191C13.4191 21.4023 13.4175 26.3773 13.4207 27.3173C13.4215 27.5717 13.4483 27.8245 13.5542 28.0607C13.6679 28.3166 13.8567 28.4785 14.1379 28.5251C14.3441 28.5607 14.5456 28.5378 14.7415 28.4706C15.1427 28.3324 15.4571 28.0717 15.7344 27.7589C15.7589 27.7313 15.785 27.7044 15.8316 27.6546V28.4351H17.12V25.0202C17.12 23.8369 17.12 21.343 17.12 21.343L15.8308 21.3462V26.6293Z" fill="#333F48"/>
<path d="M21.9214 21.9076C21.6497 21.3285 21.0786 21.1753 20.5833 21.2993C20.2831 21.3752 20.0398 21.5481 19.8399 21.7717C19.7736 21.8467 19.7009 21.9921 19.7009 21.9921C19.7009 21.9921 19.7009 19.8537 19.7009 18.8315H18.4102V28.4333H19.7009V27.8945C19.7009 27.8945 19.7925 27.9917 19.8257 28.0272C20.1219 28.3487 20.4814 28.5249 20.9245 28.5289C21.4696 28.5344 21.8487 28.2705 22.0209 27.7523C22.1007 27.5114 22.1268 27.2634 22.1276 27.0122C22.1292 25.6701 22.1292 24.3279 22.1268 22.9858C22.1268 22.6146 22.0818 22.2497 21.9214 21.9076ZM20.7981 26.8519C20.7981 26.9238 20.7894 26.9964 20.7744 27.0668C20.7152 27.348 20.5011 27.4744 20.1978 27.412C20.0137 27.374 19.87 27.2682 19.7467 27.1347C19.7412 27.1284 19.7049 27.0794 19.7049 27.0794V26.9743L19.7017 22.711C19.7017 22.711 19.7293 22.632 19.7902 22.5791C19.9418 22.4448 20.1093 22.3603 20.3186 22.3808C20.4972 22.3982 20.6394 22.4804 20.7057 22.6455C20.7555 22.7711 20.795 22.9109 20.7958 23.0452C20.8021 24.3137 20.7997 25.5824 20.7981 26.8519Z" fill="#333F48"/>
<path d="M17.2806 13.5388C17.5816 13.5388 17.8264 13.294 17.8264 12.993V9.14196C17.8264 8.84099 17.5815 8.59619 17.2806 8.59619C16.9797 8.59619 16.7349 8.84107 16.7349 9.14196V12.993C16.7348 13.2939 16.9797 13.5388 17.2806 13.5388Z" fill="#333F48"/>
<path d="M13.4217 18.8325H8.95068V20.2085H10.4571V28.4342H11.9122V20.2054H13.4217V18.8325Z" fill="#333F48"/>
<path d="M25.6089 25.9166V26.8274C25.6089 27.1457 25.3514 27.4032 25.0338 27.4032C24.7155 27.4032 24.458 27.1457 24.458 26.8274V25.0555H26.9297C26.9297 25.0555 26.9439 23.8193 26.9337 23.2584C26.9297 23.0191 26.9115 22.7766 26.8626 22.5427C26.7346 21.9361 26.4083 21.4787 25.7977 21.278C25.6184 21.2188 25.4257 21.188 25.2369 21.1761C24.6089 21.1358 24.0591 21.3152 23.6293 21.7962C23.2525 22.2173 23.1214 22.7244 23.1206 23.2742C23.1182 24.3256 23.1135 25.3778 23.1238 26.4292C23.1269 26.697 23.1569 26.9703 23.2178 27.231C23.3489 27.7911 23.6546 28.2311 24.1941 28.4744C24.5883 28.6529 25.0046 28.6616 25.4249 28.6C26.1026 28.5005 26.5648 28.1371 26.7883 27.4822C26.9566 26.9917 26.9368 25.9166 26.9368 25.9166H25.6089ZM24.458 22.9623C24.458 22.6447 24.7155 22.3864 25.0338 22.3864C25.3514 22.3864 25.6089 22.6447 25.6089 22.9623V23.9568H24.458V22.9623Z" fill="#333F48"/>
<path d="M0 0V36H36V0H0ZM20.2805 7.50364H21.5915V12.9401C21.5915 13.0121 21.5973 13.085 21.6099 13.1556C21.6496 13.3796 21.8153 13.4851 22.031 13.4103C22.294 13.3193 22.4947 13.1372 22.6649 12.9226C22.689 12.892 22.6846 12.8348 22.6846 12.7898V7.50364H24.0052L24.0048 14.6324H22.6839L22.6855 13.8665C22.5394 14.0104 22.4148 14.1447 22.2778 14.2654C22.035 14.4794 21.7599 14.6388 21.4382 14.7018C20.9442 14.7983 20.5235 14.6422 20.366 14.1307C20.3135 13.9603 20.2819 13.7766 20.2805 13.5987V7.50364ZM17.2802 7.32519C18.3248 7.32519 19.1716 8.17201 19.1716 9.21662V12.9182C19.1716 13.9628 18.3248 14.8096 17.2802 14.8096C16.2356 14.8096 15.3887 13.9628 15.3887 12.9182V9.21662C15.3887 8.17201 16.2355 7.32519 17.2802 7.32519ZM12.1922 4.98215C12.1922 4.98215 12.7929 7.53373 13.0797 8.74242H13.0801C13.3669 7.53373 13.9676 4.98215 13.9676 4.98215H15.4708C15.4708 4.98215 14.3159 8.81233 13.7995 10.5205C13.7808 10.5822 13.7724 10.6493 13.7724 10.714L13.773 14.6309H12.3869L12.3874 10.714C12.3874 10.6493 12.3789 10.5823 12.3603 10.5205C11.8439 8.81233 10.689 4.98215 10.689 4.98215H12.1922ZM28.7205 27.7162C28.7205 29.4683 27.3208 30.8997 25.5695 30.9368C20.5241 31.045 15.4764 31.045 10.4303 30.9368C8.67978 30.8997 7.28 29.4683 7.28 27.7162V19.8358C7.28 18.0845 8.67978 16.6531 10.4303 16.616C15.4764 16.5078 20.5241 16.5078 25.5695 16.616C27.3208 16.6531 28.7205 18.0845 28.7205 19.8358V27.7162Z" fill="#333F48"/>
</svg>
